<?xml version="1.0" encoding="utf-8"?>
<!-- Generator: Adobe Illustrator 25.4.1, SVG Export Plug-In . SVG Version: 6.00 Build 0)  -->
<svg version="1.1" id="Layer_1" xmlns="http://www.w3.org/2000/svg" xmlns:xlink="http://www.w3.org/1999/xlink" x="0px" y="0px"
	 viewBox="0 0 323.74 331.91" style="enable-background:new 0 0 323.74 331.91;" xml:space="preserve">
<style type="text/css">
	.st0{fill:#D1262A;}
	.st1{fill:#FCF9F9;}
	.st2{fill:#1E1A1A;}
</style>
<path class="st0" d="M196.14,312.42c2.83,4.25,6.88,5.95,11.46,4.82c4-0.99,5.1-2.76,5.45-8.75c0.02-0.33,0.12-0.65,0.19-0.98
	c1.89-0.9,3.73-1.9,5.67-2.67c17.03-6.73,31.47-17.36,44.7-29.76c8.39-7.86,15.17-17.09,21.52-26.61c2.28-3.41,3.71-7.39,5.52-11.11
	c5.78-9.43,9.46-19.66,12.42-31.4c-1.98,0.85-3.08,1.06-3.84,1.69c-3.02,2.51-5.7,5.49-8.94,7.65c-3.17,2.11-6.87,3.43-10.33,5.1
	c2.44-2.15,4.88-4.29,7.32-6.44c-0.06-0.04-0.11-0.07-0.17-0.11c1.28-1.47,2.56-2.94,3.84-4.41c6.94-2.29,9.92-8.84,14.79-13.61
	c1.69-13.54,2.89-27.15,1.47-40.87c-7.72,11.28-15.06,22.15-22.61,32.88c-1.15,1.63-3.25,2.58-4.92,3.84c1.01-1.59,2-3.19,3.03-4.77
	c3.7-5.68,7.54-11.27,11.05-17.06c2.22-3.66,3.94-7.62,5.89-11.44c0.91-1.37,2.02-2.64,2.67-4.12c1.51-3.45,3.74-6.29,2.9-10.89
	c-2.43-13.39-8.64-25.1-14.69-36.94c-0.52-1.01-1.22-1.92-2.2-3.46c-0.92,6.72-1.38,12.62-2.62,18.35
	c-1.54,7.13-3.74,14.11-5.65,21.16c-0.43,0.52-1.01,0.97-1.27,1.57c-3.36,7.7-6.68,15.42-10.01,23.13
	c-0.34-0.13-0.69-0.25-1.03-0.38c0.14-0.76,0.19-1.55,0.44-2.27c2.23-6.54,4.71-13.01,6.68-19.62c1.88-6.33,3.55-12.77,4.74-19.26
	c1.12-6.09,1.68-12.3,2.13-18.48c0.32-4.47,0.35-9.02-0.04-13.48c-0.25-2.81-0.84-6.04-2.46-8.2
	c-7.67-10.25-15.84-20.01-25.86-28.25c-15.34-12.63-32.23-22.37-51.02-28.47c-9.33-3.03-19.13-4.98-28.87-6.2
	c-6.53-0.82-13.22-1.07-20.02-0.53c-8.84,0.7-17.5,1.81-26.04,4.02c-12.85,3.34-25.19,7.91-36.69,14.72
	C80.21,47.05,70,53.72,61.29,62.38c-5.27,5.24-10.36,10.69-15.27,16.27c-5.76,6.56-9.19,14.12-8.29,23.11
	c0.54,5.35,1.23,10.69,1.98,16.02c0.56,4.01,1.12,8.05,2.04,11.99c1.87,8,3.77,16.01,6.08,23.9c1.53,5.23,3.81,10.24,5.75,15.35
	c-1-0.43-1.53-1.06-1.86-1.77c-3.69-8.01-7.35-16.04-11.02-24.07c-3.97-10.27-5.76-21.02-7.02-31.89c-0.26-2.28-0.97-4.51-1.47-6.77
	c-0.48-0.05-0.96-0.1-1.43-0.14c-4.43,9.22-9.27,18.27-13.16,27.71c-2.7,6.54-3.47,13.68-0.66,20.58c0.96,2.37,2.57,4.47,3.88,6.69
	c0.08,0.62-0.03,1.37,0.28,1.85c5.57,8.66,11.22,17.26,16.75,25.93c0.55,0.86,0.49,2.11,0.72,3.18
	c-4.38-5.44-9.04-10.68-13.07-16.37c-4.15-5.84-7.7-12.11-11.74-18.56c-0.44,1.21-1.05,2.1-1.03,2.97
	c0.28,10.41,0.31,20.85,1.11,31.23c0.73,9.45,6.35,15.81,14.73,19.87c3.11,2.89,6.26,5.75,9.3,8.71c0.48,0.47,0.5,1.41,0.74,2.14
	c-3.39-1.86-6.94-3.5-10.13-5.65c-3.54-2.38-6.76-5.22-10.96-8.53c0.42,2.24,0.54,3.21,0.78,4.16c2.53,9.88,6.64,19.11,11.53,28.02
	c0.16,0.76,0.12,1.67,0.52,2.27c5.93,8.66,11.2,17.9,18.04,25.77C61.9,281.87,77.94,294.39,96.8,303c3.21,1.46,6.39,2.97,9.59,4.45
	c0.15,4.06,0.2,8.15,5.18,9.64c4.38,1.31,9.07-0.46,12.04-4.64c0.57,0.28,1.12,0.7,1.72,0.81c5.7,1.08,11.38,2.38,17.13,3.09
	c5.51,0.68,11.11,1.16,16.64,0.98c7.66-0.26,15.32-1.02,22.93-1.97C186.78,314.77,191.44,313.43,196.14,312.42z"/>
<path class="st1" d="M299.65,158.42c-1.95,3.82-3.67,7.78-5.89,11.44c-3.51,5.79-7.36,11.38-11.05,17.06
	c-1.03,1.58-2.02,3.18-3.03,4.77c-1.59,1.76-3.17,3.52-4.86,5.39c0.64,0.43,1.25,1.17,1.7,1.09c8.07-1.51,12.03-9.27,19.28-12.54
	c-0.63,2.59-1.73,4.87-2.82,7.17c-1.06,2.26-2.1,4.53-3.6,7.75c7.3-1.86,8-8.55,12.31-12.44c0.06,3.88-1.34,6.56-3.33,9.04
	c-2.07,2.59-4.27,5.11-6.11,7.86c-0.82,1.23-0.9,2.95-1.32,4.44c-1.28,1.47-2.56,2.94-3.84,4.41c0.06,0.04,0.11,0.07,0.17,0.11
	c-2.44,2.15-4.88,4.29-7.32,6.44c-1.14,0.45-2.28,0.9-3.41,1.34c0.47,0.55,0.94,1.09,1.41,1.64c5.85,2.34,10.65-1.95,16.74-3.27
	c-2.9,5.36-5.44,10.07-8.46,15.65c1.84,0.66,3.13,1.13,4.42,1.59c-1.82,3.72-3.25,7.7-5.52,11.11
	c-6.35,9.51-13.13,18.75-21.52,26.61c-13.23,12.4-27.67,23.03-44.7,29.76c-1.94,0.77-3.78,1.77-5.67,2.67
	c-0.09-1.81-0.24-3.62-0.26-5.43c-0.08-11.09-0.12-22.18-0.17-33.27c-0.01-0.62-0.02-1.23-0.03-1.85c0-6.98,0-13.95,0-20.93
	l0.01-0.2c-0.79-9.52,2.22-18.19,7.01-26.98c-3.76-1.5-6.74-2.7-9.66-3.87c0-5.15,0-10.26,0-16.13c10.55-0.16,20.89-0.33,31.55-0.49
	c0-7.87,0-14.91,0-22.34c-2.14,0.2-3.92,0.37-5.7,0.54c5.3-6.98,9.16-14.67,11.57-23.1c1.27-0.76,2.48-1.67,3.82-2.27
	c5.75-2.55,9.35-6.81,9.99-13.1c0.55-5.42,3.43-9.49,6.75-13.45c1.12-1.34,2.07-2.83,3.29-4.53c-1.61-1.88-2.95-3.43-4.39-5.1
	c-5.07,2.17-9.74,4.17-14.41,6.17c0.27-25.66-8.58-47.93-26.41-66.11c-21.51-21.93-47.8-31.39-78.66-27.52
	c-17.48,2.19-33.04,8.93-46.34,20.1C78.46,66.73,67.04,91.5,66.66,121.27c-4.61-2.09-9.22-4.17-14.1-6.38
	c-1.57,1.97-2.86,3.59-4.32,5.43c1.52,1.94,3.04,3.48,4.08,5.3c2.02,3.52,4.66,7.01,5.43,10.84c1.47,7.3,4.8,12.53,11.83,15.26
	c0.89,0.35,1.63,1.09,2.44,1.64c2.83,9.13,7.96,17.01,13.46,24.69c-2.66,0.47-4.49-3.98-7.52-1.27c0,6.9,0,13.79,0,21.17
	c2.06,0.23,3.8,0.58,5.54,0.6c5.99,0.07,11.98-0.12,17.96,0.12c1.74,0.07,4.53,0.84,4.96,1.99c1.75,4.62,3.95,9.29,3.11,14.32
	c-3.15,1.3-6.1,2.52-9.45,3.91c1.08,2.34,1.77,3.98,2.57,5.56c2.8,5.56,4.23,11.32,4.05,17.66c-0.3,10.97-0.05,21.95-0.09,32.92
	c-0.04,10.8-0.15,21.6-0.23,32.4c-3.2-1.49-6.38-2.99-9.59-4.45c-18.86-8.61-34.9-21.13-48.39-36.64
	c-6.84-7.87-12.11-17.11-18.04-25.77c-0.41-0.6-0.36-1.51-0.52-2.27c2.33,0.58,3.43-0.43,3.59-3.08c-2.33-4.4-4.8-9.05-7.55-14.22
	c6.23,1.57,10.87,5.59,17.46,3.09c-1.96-1.57-3.34-2.68-4.72-3.78c-0.23-0.72-0.25-1.67-0.74-2.14c-3.04-2.96-6.19-5.82-9.3-8.71
	c-0.33-1.5-0.3-3.24-1.08-4.45c-1.61-2.5-3.86-4.59-5.46-7.09c-1.64-2.57-2.82-5.43-4.21-8.17c0.45-0.26,0.9-0.51,1.35-0.77
	c1.53,2.41,2.94,4.91,4.64,7.2c1.61,2.18,2.96,5.01,7.14,4.71c-2.51-5.08-4.76-9.63-7.02-14.19c0.24-0.25,0.49-0.5,0.73-0.75
	c1.53,1.04,3.13,1.99,4.57,3.15c3.36,2.71,6.54,5.64,9.98,8.24c1.55,1.18,3.35,2.78,5.85,1.23c-2.27-2.89-4.37-5.57-6.48-8.25
	c-0.23-1.07-0.17-2.32-0.72-3.18c-5.54-8.67-11.18-17.28-16.75-25.93c-0.31-0.48-0.19-1.23-0.28-1.85c0.91,0.12,1.81,0.23,3.13,0.4
	c-0.57-3.34-1.29-6.23-1.48-9.15c-0.19-2.92,0.14-5.88,0.25-8.82c5.34,12.56,6.96,14.88,11.97,15.19c-0.76-2.95-1.64-5.72-2.17-8.56
	c-0.51-2.75-0.66-5.56-1.02-8.76c4.02,2.52,3.83,7.69,8.49,9.08c0.26-2.1,0.48-3.83,0.69-5.57c3.67,8.02,7.33,16.05,11.02,24.07
	c0.33,0.72,0.86,1.34,1.86,1.77c-1.94-5.11-4.22-10.12-5.75-15.35c-2.31-7.88-4.21-15.89-6.08-23.9c-0.92-3.94-1.48-7.97-2.04-11.99
	c-0.75-5.33-1.44-10.67-1.98-16.02c-0.91-8.99,2.52-16.55,8.29-23.11c4.91-5.59,10-11.03,15.27-16.27
	C70,53.72,80.21,47.05,90.74,40.81c11.49-6.81,23.83-11.39,36.69-14.72c8.54-2.22,17.19-3.33,26.04-4.02
	c6.8-0.54,13.49-0.29,20.02,0.53c9.74,1.22,19.54,3.18,28.87,6.2c18.79,6.1,35.68,15.83,51.02,28.47
	c10.02,8.25,18.19,18,25.86,28.25c1.62,2.16,2.21,5.39,2.46,8.2c0.4,4.46,0.37,9,0.04,13.48c-0.45,6.18-1.01,12.4-2.13,18.48
	c-1.19,6.49-2.86,12.93-4.74,19.26c-1.97,6.62-4.45,13.08-6.68,19.62c-0.25,0.72-0.3,1.51-0.44,2.27c0.34,0.13,0.69,0.25,1.03,0.38
	c3.33-7.71,6.65-15.43,10.01-23.13c0.26-0.59,0.84-1.05,1.27-1.57c0.07,1.69,0.15,3.37,0.22,5.06c0.48,0.15,0.96,0.3,1.44,0.44
	c2.17-3.08,4.34-6.15,6.51-9.23c0.36,0.13,0.72,0.27,1.07,0.4c-1.08,5.66-2.16,11.32-3.24,16.98c0.38,0.16,0.77,0.31,1.15,0.47
	c6.16-3.34,8.06-9.63,9.75-17.02c2.52,7.17,0.33,13.1-0.3,19.3C298.06,158.69,298.85,158.56,299.65,158.42z M100.24,265.99
	c-8.63,0-16.7,0-25.1,0c0-5.33,0-10.23,0-15.61c2.15,0,4.21,0,6.3,0c0-5.56,0-10.64,0-16.01c-2.87,0-5.46,0-8.49,0
	c1.38-2.84,2.56-5.28,4.14-8.52c-4.01-0.25-7.35-0.45-10.91-0.67c0.46-1.35,0.82-2.41,1.22-3.61c-1.07,0-2.02,0-2.36,0
	c-3.51,5.21-6.74,10.01-9.96,14.81c-0.07,0.11,0.01,0.33,0.04,0.67c0.82,0.55,1.71,1.14,2.59,1.73c0,1.97,0,3.8,0,5.63
	c0,1.94,0,3.88,0,5.72c2.15,0.28,3.7,0.47,5.22,0.67c-0.79,9.55-2.13,12.42-8.03,17.37c0.6,0.71,1.21,1.43,1.81,2.14
	c7.7-4.45,8.39-12.12,9.68-19.62c1.85,0,3.41,0,4.98,0c1.35,5.85-1.3,12.07,2.18,18.01c9.87,0.87,19.66,1.61,29.5-0.47
	c0.63-2.39,1.08-4.11,1.59-6.06c-0.93-0.38-1.65-0.67-2.41-0.97C101.56,262.86,100.93,264.35,100.24,265.99z M93,232.51
	c0-4.1,0-7.48,0-11.03c-0.93,0.05-1.72,0.09-2.77,0.14c-0.28,3.58-0.54,7-0.82,10.61c-2.29,0.14-4.37,0.27-6.42,0.39
	c0,1.03,0,1.76,0,2.61c2.18,0.15,4.13,0.28,6.11,0.41c-0.69,8.92-3.15,16.96-9.29,23.88c1.11,0.58,1.77,0.93,2.43,1.28
	c7.18-6.97,8.59-16.03,10.13-25.18c2.44,0,4.68,0,7.24,0c0.11,7.39,0.1,14.56-2.17,21.56c-2.14,0.18-3.91,0.34-5.89,0.51
	c0.34,1,0.6,1.75,1.06,3.11c2.74-0.56,5.35-1.09,8.61-1.75c0.69-9.09,1.33-17.6,2.01-26.54C99.45,232.51,96.36,232.51,93,232.51z
	 M258.33,270.19c0-9.51,0-18.02,0-26.98c3.32,0,5.88,0,8.61,0c-0.16-1.25-0.26-2-0.36-2.69c-10.41,0-20.47,0-30.56,0
	c0,1.03,0,1.78,0,2.94c6.26,0,12.33,0,18.51,0c0,8.13,0,15.85,0,24.03c-3.29,0-6.34,0-9.65,0c0.57,1.37,0.94,2.24,1.37,3.26
	C250.11,270.57,253.69,270.4,258.33,270.19z M228.77,270.61c0-6.72,0.21-13.01-0.06-19.27c-0.24-5.48,0.31-10.53,4.32-14.71
	c0.63-0.66,0.85-1.71,1.4-2.88c-1.24-0.18-2.16-0.32-2.49-0.37c-5,6.11-9.69,11.83-14.49,17.69c0.66,0.61,1.31,1.21,1.94,1.79
	c2.02-1.89,3.77-3.52,6.34-5.92c0,8.64,0,16.03,0,23.5C226.78,270.49,227.42,270.53,228.77,270.61z M238.36,227.34
	c9.06,0,17.63,0,26.28,0c0-1.02,0-1.76,0-2.59c-8.88,0-17.58,0-26.28,0C238.36,225.72,238.36,226.35,238.36,227.34z M217.18,233.14
	c0.73,0.65,1.42,1.25,2.38,2.1c4.49-4.15,8.79-8.14,13.31-12.32c-1.5-0.69-2.51-1.16-3.17-1.46
	C225.47,225.4,221.51,229.1,217.18,233.14z"/>
<path class="st2" d="M72.02,153.37c-0.81-0.56-1.55-1.3-2.44-1.64c-7.03-2.73-10.36-7.95-11.83-15.26
	c-0.77-3.83-3.41-7.32-5.43-10.84c-1.04-1.82-2.56-3.36-4.08-5.3c1.46-1.84,2.76-3.46,4.32-5.43c4.88,2.21,9.49,4.3,14.1,6.38
	c1.66,0.74,3.27,1.59,4.98,2.19c20.35,7.11,41.53,9.35,62.86,10.67c12.52,0.07,25.05,0.14,37.57,0.21
	c13.55-1.05,27.15-1.63,40.63-3.28c13.64-1.67,27.11-4.6,39.92-9.89c4.67-2,9.34-4,14.41-6.17c1.44,1.67,2.77,3.22,4.39,5.1
	c-1.23,1.7-2.17,3.19-3.29,4.53c-3.32,3.96-6.2,8.02-6.75,13.45c-0.64,6.29-4.24,10.55-9.99,13.1c-1.35,0.6-2.55,1.5-3.82,2.27
	c-3.35,1.45-5.25,3.87-5.14,7.64c0.07,2.33-1.16,3.82-3.25,4.4c-2.05,0.56-4.2,1.01-6.32,1.06c-6.3,0.14-12.6,0.05-17.47,0.05
	c-3.1,2.67-5.18,4.45-8.27,7.11c5.21-1,7.27,1.69,9.27,4.53c5.58,0,11.06,0.09,16.54-0.08c1.04-0.03,2.05-1.04,3.07-1.6
	c1.78-0.17,3.56-0.34,5.7-0.54c0,7.44,0,14.47,0,22.34c-10.66,0.17-21,0.33-31.55,0.49c0,5.86,0,10.97,0,16.13
	c2.93,1.17,5.9,2.36,9.66,3.87c-4.79,8.8-7.81,17.46-7.01,26.98c-1.14-0.65-2.28-1.3-3.26-1.86c-2.31,2.23-4.5,4.34-7.29,7.04
	c-0.74-3.76-1.27-6.45-1.77-8.98c2.87-1.88,5.26-3.44,7.91-5.18c-1.42-0.88-2.37-1.46-3.03-1.87c-3.25,1.83-6.14,3.45-9.03,5.07
	c-0.06-2.5-0.12-5-0.18-7.5c5.45,0,10.9,0,16.62,0c-0.12-1.57-0.2-2.48-0.26-3.3c-5.95-1.82-12.45,1.62-17.96-2.55
	c0.66-1.85,1.19-3.32,1.71-4.78c-0.12-5.92-0.25-11.84-0.37-17.76c0.16-1.57,0.31-3.13,0.5-5.03c-10.1,0-19.65,0-29.19,0
	c-13.91-0.08-27.82-0.17-41.74-0.18c-0.71,0-1.42,0.64-2.14,0.98l0.02-0.06c0.04,7.57,0.09,15.14,0.13,22.71c-4.76,0-9.52,0-14.55,0
	c0.15,1.75,0.23,2.65,0.35,4.05c4.07,0,7.8,0,11.51,0c0,3.15,0,5.75,0,8.65c-3.34,0.18-6.42,0.34-9.75,0.51
	c-0.62,5.48-1.22,10.68-1.93,16.95c2.14-0.93,3.55-1.55,4.78-2.09c2.36,0,4.61,0,7.42,0c-0.64,5.79-1.23,11.14-1.83,16.54
	c-3.37,0.25-5.9,0.44-8.84,0.66c0.65,1.33,1.06,2.18,1.42,2.92c6.87,0.6,7.14,0.54,11.34-2.58c0.01,4.47,0.02,8.95,0.03,13.42
	c-0.07,0.1-0.18,0.2-0.18,0.3c0,0.11,0.12,0.21,0.18,0.31c0,1.25-0.01,2.51-0.01,3.76l0-0.11c0,5.82,0,11.64,0,17.46l-0.2,0.05
	l0.19,0.07c0.07,3,0.14,6,0.21,9c-2.97,4.18-7.65,5.95-12.04,4.64c-4.98-1.49-5.03-5.58-5.18-9.64c0.08-10.8,0.19-21.6,0.23-32.4
	c0.04-10.98-0.21-21.96,0.09-32.92c0.18-6.34-1.26-12.1-4.05-17.66c-0.8-1.58-1.49-3.22-2.57-5.56c3.35-1.39,6.3-2.61,9.45-3.91
	c0.83-5.03-1.37-9.7-3.11-14.32c-0.44-1.15-3.22-1.92-4.96-1.99c-5.98-0.24-11.97-0.05-17.96-0.12c-1.75-0.02-3.49-0.37-5.54-0.6
	c0-7.38,0-14.27,0-21.17c3.03-2.71,4.86,1.74,7.52,1.27c5.96,0,11.93,0,16.23,0c4.1-2.44,6.87-4.09,8.46-5.04
	c-1.37-1.96-2.99-4.27-4.56-6.5c-6.93,0-13.58,0-20.22,0c-3.14,0-5.9-0.77-7.86-3.86C77.94,158.42,76.17,155.18,72.02,153.37z
	 M170.21,166.85c0,4.73,0,8.94,0,13.18c5.47,0,10.56,0,14.27,0c4.21-3.1,7.42-5.46,10.52-7.75c-1.43-1.46-3.34-3.42-5.3-5.43
	C183.33,166.85,176.9,166.85,170.21,166.85z M133.83,179.98c5.31,0,10.4,0,15.75,0c0-4.42,0-8.63,0-13.12c-6.71,0-13.27,0-19.16,0
	c-2.34,2.31-4.31,4.24-6.44,6.34C128.92,173.07,131.48,176.52,133.83,179.98z"/>
<path class="st1" d="M196.14,232.55c0.06,2.5,0.12,5,0.18,7.5c-3.82,2.06-7.63,4.13-11.51,6.22c1.44,3.53,3.79-0.17,5.92,1.18
	c0,7.42,0,15.15,0,22.78c1.22,0,1.97,0,3.03,0c0-7.52-0.01-14.8,0.01-22.08c0.01-1.75-0.49-3.9,2.43-3.84
	c-0.02,22.7-0.04,45.4-0.06,68.1c-4.7,1.01-9.36,2.35-14.11,2.95c-7.61,0.95-15.27,1.71-22.93,1.97
	c-5.53,0.19-11.13-0.29-16.64-0.98c-5.75-0.71-11.43-2.01-17.13-3.09c-0.6-0.11-1.15-0.53-1.72-0.81c-0.07-3-0.14-6-0.21-9
	l0.01-0.12c0-5.82,0-11.64,0-17.46l0,0.11c0-1.25,0.01-2.51,0.01-3.76c0.18-0.2,0.18-0.4,0-0.61c-0.01-4.47-0.02-8.95-0.03-13.42
	c0.4-6.37,0.84-12.74,1.14-19.12c0.04-0.81-0.68-1.66-1.05-2.49c0.02-2,0.04-4,0.06-6.01c0.39-0.61,1.12-1.22,1.13-1.84
	c0.1-4.56,0.12-9.13,0-13.7c-0.02-0.83-0.78-1.65-1.2-2.47c-0.04-7.57-0.09-15.14-0.13-22.71l-0.02,0.06
	c0.71-0.34,1.43-0.98,2.14-0.98c13.91,0.02,27.82,0.11,41.74,0.18c8.99,4.97,18.75,5.49,28.69,5.03c0.12,5.92,0.25,11.84,0.37,17.76
	c-1.42-0.24-2.84-0.47-3.63-0.6c-2.9,6.3-5.57,12.11-8.32,18.1c0.36,0.21,1.17,0.67,2.26,1.3c1.79-2.83,3.45-5.45,5.16-8.17
	C193.18,232.55,194.66,232.55,196.14,232.55z M158.82,236.17c-6.93-9.36-7.34-9.7-10.99-8.94c1.22,1.65,2.33,3.16,3.8,5.14
	c-5.67,0.31-10.7,0.58-16.51,0.89c2.26-4.14,4.12-7.56,6.15-11.27c-1.44-0.34-2.33-0.54-3.26-0.76c-2.27,3.99-4.38,7.71-6.42,11.3
	c-1.68,0.19-2.96,0.34-4.45,0.51c0.29,1.12,0.53,2.03,0.71,2.71c4.37,0,8.45,0,12.65,0c0,1.85,0,3.58,0,5.73c-3.64,0-7.07,0-10.58,0
	c0,5.15,0,9.88,0,15.02c3.67,0,7.1,0,10.46,0c0,3.15,0,5.86,0,9.1c-4.59,0-8.84,0-13.64,0c0.6,1.48,0.93,2.31,1.22,3.01
	c8.81-0.48,17.27-0.94,25.7-1.39c1.06,1.28,1.95,2.34,2.94,3.53c0.92-0.74,1.52-1.23,2.35-1.9c-2.6-3.63-5.09-7.1-7.68-10.7
	c-1.09,0.63-1.78,1.03-2.59,1.5c1.05,1.47,1.96,2.76,3.31,4.67c-2.97,0.27-5.28,0.47-7.75,0.69c0-3.19,0-5.76,0-8.69
	c3.91,0,7.52,0,11.25,0c0-5.1,0-9.84,0-15.09c-3.97,0-7.71,0-11.66,0c0.17-2.14,0.29-3.75,0.43-5.58c3.29-0.19,6.24-0.36,9.32-0.54
	c1.01,0.87,2.07,1.77,3.19,2.73C157.55,237.22,158.04,236.82,158.82,236.17z M163.01,230.34c0.29,1.44,0.44,2.2,0.57,2.87
	c1.87,0.17,3.45,0.32,5.21,0.48c-0.09,12.16-0.22,23.91-6.15,34.59c0.57,0.53,0.9,0.91,1.3,1.18c0.25,0.16,0.62,0.14,1.21,0.26
	c5.19-7.44,5.28-16.39,6.65-24.99c2.69,0,5.09,0,7.92,0c-1.14,7.73,0.2,15.4-2.39,22.52c-2.54,0.16-4.51,0.29-6.8,0.43
	c0.51,1.15,0.87,1.97,1.17,2.64c7.73,0.37,9.31-0.16,9.78-4.91c0.77-7.88,0.88-15.83,1.29-24.3c-3.83,0-7.24,0-10.7,0
	c0-2.8,0-5.05,0-7.71c4.66,0,9.09,0,13.87,0c-0.19-1.32-0.31-2.18-0.48-3.4c-3.21,0-6.15,0-9.29,0c0-2.99,0-5.57,0-8.35
	c-0.97,0-2.05,0-3.65,0c0,2.94,0,5.67,0,8.69C169.23,230.34,166.44,230.34,163.01,230.34z"/>
<path class="st2" d="M196.14,312.42c0.02-22.7,0.04-45.4,0.06-68.1c0.57,0.63,1.42,1.17,1.65,1.9c1.13,3.59,1.86,7.32,3.18,10.84
	c1.97,5.24,4.77,9.99,9.56,13.27c0.88-0.61,1.55-1.06,2.21-1.52c0.05,11.09,0.1,22.18,0.17,33.27c0.01,1.81,0.17,3.62,0.26,5.43
	c-0.06,0.33-0.17,0.65-0.19,0.98c-0.35,5.99-1.45,7.75-5.45,8.75C203.02,318.37,198.97,316.67,196.14,312.42z"/>
<path class="st2" d="M40.7,143.18c-0.22,1.74-0.43,3.48-0.69,5.57c-4.66-1.39-4.47-6.56-8.49-9.08c0.36,3.2,0.51,6.01,1.02,8.76
	c0.53,2.84,1.41,5.61,2.17,8.56c-5.01-0.32-6.63-2.63-11.97-15.19c-0.1,2.94-0.44,5.9-0.25,8.82c0.19,2.92,0.92,5.81,1.48,9.15
	c-1.31-0.17-2.22-0.29-3.13-0.4c-1.31-2.22-2.92-4.33-3.88-6.69c-2.81-6.9-2.04-14.04,0.66-20.58c3.89-9.44,8.73-18.49,13.16-27.71
	c0.48,0.05,0.96,0.1,1.43,0.14c0.5,2.25,1.2,4.49,1.47,6.77C34.93,122.17,36.73,132.91,40.7,143.18z"/>
<path class="st2" d="M299.65,158.42c-0.8,0.13-1.59,0.27-2.97,0.5c0.64-6.2,2.82-12.13,0.3-19.3c-1.69,7.39-3.59,13.68-9.75,17.02
	c-0.38-0.16-0.77-0.31-1.15-0.47c1.08-5.66,2.16-11.32,3.24-16.98c-0.36-0.13-0.72-0.27-1.07-0.4c-2.17,3.08-4.34,6.15-6.51,9.23
	c-0.48-0.15-0.96-0.3-1.44-0.44c-0.07-1.69-0.15-3.37-0.22-5.06c1.91-7.05,4.11-14.03,5.65-21.16c1.24-5.73,1.69-11.63,2.62-18.35
	c0.98,1.53,1.69,2.45,2.2,3.46c6.05,11.85,12.25,23.56,14.69,36.94c0.84,4.61-1.39,7.45-2.9,10.89
	C301.68,155.78,300.56,157.06,299.65,158.42z"/>
<path class="st2" d="M38.59,190.34c2.11,2.68,4.21,5.37,6.48,8.25c-2.5,1.55-4.3-0.06-5.85-1.23c-3.44-2.6-6.62-5.53-9.98-8.24
	c-1.43-1.16-3.04-2.1-4.57-3.15c-0.24,0.25-0.49,0.5-0.73,0.75c2.25,4.55,4.5,9.11,7.02,14.19c-4.18,0.29-5.52-2.53-7.14-4.71
	c-1.69-2.29-3.1-4.79-4.64-7.2c-0.45,0.26-0.9,0.51-1.35,0.77c1.38,2.74,2.56,5.6,4.21,8.17c1.6,2.5,3.85,4.59,5.46,7.09
	c0.78,1.21,0.75,2.95,1.08,4.45c-8.38-4.05-14-10.42-14.73-19.87c-0.8-10.38-0.83-20.82-1.11-31.23c-0.02-0.87,0.59-1.76,1.03-2.97
	c4.05,6.46,7.59,12.72,11.74,18.56C29.55,179.65,34.21,184.9,38.59,190.34z"/>
<path class="st2" d="M290.94,209.45c0.42-1.5,0.5-3.22,1.32-4.44c1.84-2.75,4.04-5.26,6.11-7.86c1.98-2.48,3.38-5.16,3.33-9.04
	c-4.32,3.89-5.01,10.58-12.31,12.44c1.49-3.22,2.53-5.49,3.6-7.75c1.08-2.29,2.19-4.58,2.82-7.17c-7.24,3.27-11.2,11.02-19.28,12.54
	c-0.46,0.09-1.07-0.66-1.7-1.09c1.69-1.87,3.27-3.63,4.86-5.39c1.66-1.26,3.77-2.21,4.92-3.84c7.55-10.73,14.89-21.6,22.61-32.88
	c1.41,13.72,0.21,27.33-1.47,40.87C300.86,200.61,297.88,207.16,290.94,209.45z"/>
<path class="st2" d="M38.63,220.32c1.38,1.11,2.76,2.21,4.72,3.78c-6.58,2.5-11.23-1.52-17.46-3.09c2.74,5.17,5.21,9.82,7.55,14.22
	c-0.16,2.65-1.26,3.66-3.59,3.08c-4.89-8.91-9-18.14-11.53-28.02c-0.24-0.94-0.37-1.92-0.78-4.16c4.2,3.31,7.42,6.15,10.96,8.53
	C31.69,216.82,35.24,218.46,38.63,220.32z"/>
<path class="st2" d="M290.65,237.37c-1.29-0.46-2.58-0.93-4.42-1.59c3.02-5.59,5.56-10.29,8.46-15.65
	c-6.09,1.32-10.89,5.61-16.74,3.27c-0.47-0.55-0.94-1.09-1.41-1.64c1.14-0.45,2.28-0.9,3.41-1.34c3.47-1.67,7.16-2.99,10.33-5.1
	c3.24-2.16,5.93-5.14,8.94-7.65c0.76-0.63,1.86-0.84,3.84-1.69C300.11,217.71,296.43,227.93,290.65,237.37z"/>
<path class="st0" d="M252.61,121.17c-12.81,5.29-26.28,8.21-39.92,9.89c-13.47,1.65-27.08,2.23-40.63,3.28
	c11.78-12.2,23.54-24.42,35.34-36.6c3.1-3.2,6.69-6.04,7.56-10.41c-3.54-6.34-6.73-12.5-10.34-18.4c-2.89-4.73-7.47-7.4-12.82-8.75
	c-10.78-2.71-20.43-0.76-28.6,7.06c-5.12,4.91-11.07,7.73-18.26,7.95c-3.13,0.09-6.27,0.54-9.37,1.08
	c-11.09,1.91-22.17,3.91-33.25,5.92c-0.62,0.11-1.17,0.62-1.75,0.95c1.68,1.08,3.22,1.43,4.77,1.46c16.48,0.37,32.96,0.54,49.43,1.1
	c6.77,0.23,13.6,0.76,20.23,2.05c6.01,1.17,7.63,6.48,3.93,11.34c-1.7,2.23-3.76,4.28-5.98,5.99c-5.78,4.46-11.79,8.63-17.63,13.03
	c-7,5.28-13.91,10.68-20.86,16.03c-21.33-1.33-42.51-3.56-62.86-10.67c-1.71-0.6-3.32-1.45-4.98-2.19
	c0.38-29.77,11.8-54.54,34.54-73.63c13.3-11.17,28.86-17.91,46.34-20.1c30.86-3.87,57.15,5.6,78.66,27.52
	C244.04,73.23,252.89,95.51,252.61,121.17z"/>
<path class="st0" d="M100.24,265.99c0.69-1.64,1.32-3.13,2.02-4.77c0.76,0.31,1.48,0.6,2.41,0.97c-0.51,1.94-0.97,3.67-1.59,6.06
	c-9.84,2.08-19.64,1.34-29.5,0.47c-3.48-5.94-0.83-12.16-2.18-18.01c-1.57,0-3.13,0-4.98,0c-1.29,7.5-1.98,15.17-9.68,19.62
	c-0.6-0.71-1.21-1.43-1.81-2.14c5.9-4.95,7.24-7.82,8.03-17.37c-1.53-0.2-3.08-0.39-5.22-0.67c0-1.84,0-3.78,0-5.72
	c0-1.83,0-3.66,0-5.63c-0.88-0.59-1.77-1.18-2.59-1.73c-0.03-0.34-0.11-0.56-0.04-0.67c3.22-4.8,6.45-9.6,9.96-14.81
	c0.34,0,1.3,0,2.36,0c-0.41,1.2-0.76,2.25-1.22,3.61c3.55,0.22,6.89,0.42,10.91,0.67c-1.58,3.25-2.76,5.68-4.14,8.52
	c3.03,0,5.62,0,8.49,0c0,5.37,0,10.45,0,16.01c-2.09,0-4.15,0-6.3,0c0,5.38,0,10.28,0,15.61
	C83.54,265.99,91.61,265.99,100.24,265.99z M70.94,247.04c2.86,0,5.23,0,7.49,0c0-3.33,0-6.26,0-9.32c-2.6,0-4.97,0-7.49,0
	C70.94,240.95,70.94,243.88,70.94,247.04z M67.51,247.23c0-3.34,0-6.39,0-9.56c-2.26,0-4.3,0-6.48,0c0,3.29,0,6.33,0,9.56
	C63.19,247.23,65.12,247.23,67.51,247.23z M72.43,228.52c-3.26,0-5.72,0-8.34,0c-1.22,1.82-2.44,3.65-3.84,5.74c3.32,0,6.1,0,8.96,0
	C70.22,232.46,71.17,230.77,72.43,228.52z"/>
<path class="st0" d="M235.99,176.55c-1.02,0.56-2.03,1.57-3.07,1.6c-5.48,0.16-10.97,0.08-16.54,0.08c-2-2.83-4.06-5.53-9.27-4.53
	c3.09-2.65,5.17-4.44,8.27-7.11c4.86,0,11.17,0.09,17.47-0.05c2.12-0.05,4.27-0.49,6.32-1.06c2.1-0.57,3.32-2.07,3.25-4.4
	c-0.11-3.77,1.8-6.2,5.14-7.64C245.15,161.87,241.29,169.57,235.99,176.55z"/>
<path class="st0" d="M72.02,153.37c4.15,1.81,5.93,5.05,5.51,9.29c1.95,3.09,4.72,3.86,7.86,3.86c6.65,0,13.29,0,20.22,0
	c1.56,2.23,3.18,4.54,4.56,6.5c-1.59,0.95-4.37,2.6-8.46,5.04c-4.3,0-10.26,0-16.23,0C79.98,170.38,74.85,162.5,72.02,153.37z"/>
<path class="st0" d="M212.81,268.8c-0.66,0.46-1.33,0.91-2.21,1.52c-4.79-3.27-7.6-8.03-9.56-13.27c-1.32-3.52-2.05-7.25-3.18-10.84
	c-0.23-0.73-1.09-1.27-1.65-1.9c-2.93-0.06-2.43,2.08-2.43,3.84c-0.02,7.28-0.01,14.56-0.01,22.08c-1.07,0-1.81,0-3.03,0
	c0-7.63,0-15.36,0-22.78c-2.13-1.35-4.48,2.35-5.92-1.18c3.88-2.1,7.69-4.16,11.51-6.22c2.89-1.62,5.77-3.24,9.03-5.07
	c0.66,0.41,1.61,0.99,3.03,1.87c-2.65,1.73-5.04,3.3-7.91,5.18c0.5,2.53,1.03,5.22,1.77,8.98c2.79-2.7,4.98-4.81,7.29-7.04
	c0.99,0.56,2.12,1.21,3.26,1.86l-0.01,0.2c-3.12,2.64-6.24,5.28-9.41,7.97c2.4,5.3,4.31,10.27,9.41,12.96
	C212.79,267.57,212.8,268.19,212.81,268.8z"/>
<path class="st0" d="M93,232.51c3.35,0,6.45,0,10.24,0c-0.68,8.94-1.32,17.45-2.01,26.54c-3.25,0.66-5.86,1.19-8.61,1.75
	c-0.46-1.36-0.72-2.11-1.06-3.11c1.97-0.17,3.75-0.32,5.89-0.51c2.27-7,2.29-14.17,2.17-21.56c-2.56,0-4.81,0-7.24,0
	c-1.54,9.15-2.95,18.21-10.13,25.18c-0.66-0.35-1.32-0.7-2.43-1.28c6.15-6.92,8.6-14.96,9.29-23.88c-1.99-0.13-3.94-0.26-6.11-0.41
	c0-0.85,0-1.58,0-2.61c2.05-0.12,4.14-0.25,6.42-0.39c0.28-3.61,0.54-7.03,0.82-10.61c1.04-0.05,1.84-0.1,2.77-0.14
	C93,225.04,93,228.41,93,232.51z"/>
<path class="st0" d="M258.33,270.19c-4.64,0.21-8.21,0.38-12.07,0.56c-0.43-1.02-0.79-1.89-1.37-3.26c3.31,0,6.36,0,9.65,0
	c0-8.18,0-15.9,0-24.03c-6.18,0-12.26,0-18.51,0c0-1.16,0-1.91,0-2.94c10.09,0,20.15,0,30.56,0c0.09,0.69,0.19,1.45,0.36,2.69
	c-2.72,0-5.29,0-8.61,0C258.33,252.17,258.33,260.68,258.33,270.19z"/>
<path class="st0" d="M228.77,270.61c-1.36-0.08-1.99-0.12-3.04-0.18c0-7.47,0-14.85,0-23.5c-2.58,2.41-4.32,4.03-6.34,5.92
	c-0.63-0.58-1.28-1.18-1.94-1.79c4.8-5.86,9.48-11.58,14.49-17.69c0.33,0.05,1.25,0.19,2.49,0.37c-0.55,1.17-0.77,2.23-1.4,2.88
	c-4,4.18-4.56,9.23-4.32,14.71C228.98,257.6,228.77,263.89,228.77,270.61z"/>
<path class="st2" d="M212.78,266.95c-5.1-2.69-7.01-7.66-9.41-12.96c3.17-2.69,6.29-5.33,9.41-7.97
	C212.78,253,212.78,259.97,212.78,266.95z"/>
<path class="st0" d="M238.36,227.34c0-0.99,0-1.62,0-2.59c8.7,0,17.4,0,26.28,0c0,0.82,0,1.57,0,2.59
	C255.99,227.34,247.42,227.34,238.36,227.34z"/>
<path class="st0" d="M217.18,233.14c4.33-4.05,8.29-7.74,12.52-11.69c0.66,0.3,1.67,0.77,3.17,1.46
	c-4.52,4.19-8.83,8.17-13.31,12.32C218.59,234.39,217.91,233.79,217.18,233.14z"/>
<path class="st1" d="M134.5,134.13c6.95-5.35,13.86-10.75,20.86-16.03c5.83-4.4,11.84-8.57,17.63-13.03
	c2.22-1.71,4.28-3.76,5.98-5.99c3.7-4.86,2.08-10.17-3.93-11.34c-6.63-1.29-13.46-1.82-20.23-2.05c-16.47-0.55-32.95-0.73-49.43-1.1
	c-1.55-0.03-3.09-0.38-4.77-1.46c0.58-0.33,1.13-0.84,1.75-0.95c11.08-2.01,22.15-4.02,33.25-5.92c3.1-0.53,6.24-0.98,9.37-1.08
	c7.19-0.21,13.14-3.04,18.26-7.95c8.16-7.82,17.81-9.78,28.6-7.06c5.35,1.35,9.92,4.02,12.82,8.75c3.61,5.9,6.8,12.06,10.34,18.4
	c-0.88,4.37-4.46,7.21-7.56,10.41c-11.8,12.18-23.57,24.4-35.34,36.6C159.54,134.27,147.02,134.2,134.5,134.13z"/>
<path class="st0" d="M123.47,222.59c0.42,0.82,1.18,1.64,1.2,2.47c0.12,4.56,0.1,9.13,0,13.7c-0.01,0.62-0.74,1.23-1.13,1.84
	c-3.06-0.91-6.05-2.52-9.65-0.77c0,2.13,0,4.31,0,6.78c3.41,0,6.5,0,9.59,0c0.37,0.83,1.09,1.68,1.05,2.49
	c-0.3,6.38-0.74,12.75-1.14,19.12c-4.2,3.12-4.47,3.18-11.34,2.58c-0.36-0.74-0.77-1.59-1.42-2.92c2.94-0.22,5.47-0.41,8.84-0.66
	c0.6-5.4,1.19-10.74,1.83-16.54c-2.81,0-5.06,0-7.42,0c-1.23,0.54-2.65,1.16-4.78,2.09c0.71-6.27,1.31-11.48,1.93-16.95
	c3.33-0.18,6.41-0.34,9.75-0.51c0-2.9,0-5.5,0-8.65c-3.71,0-7.44,0-11.51,0c-0.12-1.41-0.2-2.3-0.35-4.05
	C113.95,222.59,118.71,222.59,123.47,222.59z"/>
<path class="st0" d="M170.21,166.85c6.69,0,13.12,0,19.49,0c1.96,2.01,3.87,3.96,5.3,5.43c-3.11,2.29-6.31,4.65-10.52,7.75
	c-3.71,0-8.8,0-14.27,0C170.21,175.79,170.21,171.58,170.21,166.85z"/>
<path class="st1" d="M133.83,179.98c-2.35-3.46-4.91-6.9-9.85-6.78c2.14-2.1,4.1-4.04,6.44-6.34c5.88,0,12.45,0,19.16,0
	c0,4.49,0,8.71,0,13.12C144.23,179.98,139.14,179.98,133.83,179.98z"/>
<path class="st0" d="M196.14,232.55c-1.48,0-2.96,0-4.41,0c-1.72,2.72-3.38,5.34-5.16,8.17c-1.09-0.63-1.9-1.09-2.26-1.3
	c2.75-5.99,5.42-11.79,8.32-18.1c0.79,0.13,2.21,0.37,3.63,0.6c-0.52,1.46-1.05,2.93-1.71,4.78c5.51,4.16,12.01,0.72,17.96,2.55
	c0.06,0.82,0.14,1.72,0.26,3.3C207.04,232.55,201.59,232.55,196.14,232.55z"/>
<path class="st0" d="M195.89,204.17c-9.94,0.46-19.71-0.06-28.69-5.03c9.55,0,19.1,0,29.19,0
	C196.2,201.03,196.04,202.6,195.89,204.17z"/>
<path class="st0" d="M123.42,281.63c0.19,0.21,0.19,0.41,0,0.61c-0.07-0.1-0.18-0.21-0.18-0.31
	C123.24,281.83,123.36,281.73,123.42,281.63z"/>
<polygon class="st0" points="123.41,303.35 123.4,303.46 123.21,303.39 "/>
<path class="st0" d="M123.32,199.94l0.02-0.06L123.32,199.94z"/>
<path class="st0" d="M123.41,286l0-0.11L123.41,286z"/>
<path class="st0" d="M158.82,236.17c-0.79,0.65-1.28,1.05-2.04,1.68c-1.12-0.96-2.18-1.86-3.19-2.73c-3.08,0.18-6.03,0.35-9.32,0.54
	c-0.14,1.83-0.27,3.44-0.43,5.58c3.95,0,7.69,0,11.66,0c0,5.26,0,9.99,0,15.09c-3.73,0-7.34,0-11.25,0c0,2.93,0,5.5,0,8.69
	c2.47-0.22,4.79-0.43,7.75-0.69c-1.35-1.91-2.27-3.19-3.31-4.67c0.81-0.47,1.5-0.87,2.59-1.5c2.58,3.6,5.07,7.07,7.68,10.7
	c-0.83,0.67-1.43,1.16-2.35,1.9c-0.99-1.19-1.87-2.25-2.94-3.53c-8.43,0.46-16.89,0.92-25.7,1.39c-0.29-0.71-0.62-1.53-1.22-3.01
	c4.8,0,9.05,0,13.64,0c0-3.23,0-5.95,0-9.1c-3.36,0-6.79,0-10.46,0c0-5.14,0-9.87,0-15.02c3.51,0,6.94,0,10.58,0
	c0-2.14,0-3.88,0-5.73c-4.2,0-8.28,0-12.65,0c-0.18-0.68-0.42-1.59-0.71-2.71c1.49-0.17,2.76-0.32,4.45-0.51
	c2.04-3.59,4.15-7.31,6.42-11.3c0.92,0.21,1.82,0.42,3.26,0.76c-2.03,3.71-3.89,7.13-6.15,11.27c5.81-0.31,10.84-0.59,16.51-0.89
	c-1.47-1.99-2.58-3.5-3.8-5.14C151.48,226.47,151.89,226.81,158.82,236.17z M144.28,244.62c0,3.22,0,5.91,0,8.56
	c2.91,0,5.48,0,8.16,0c0-2.96,0-5.66,0-8.56C149.64,244.62,147.07,244.62,144.28,244.62z M140.54,253.22c0-2.92,0-5.65,0-8.59
	c-2.58,0-4.98,0-7.59,0c0,2.92,0,5.65,0,8.59C135.54,253.22,137.93,253.22,140.54,253.22z"/>
<path class="st0" d="M163.01,230.34c3.44,0,6.22,0,9.52,0c0-3.02,0-5.75,0-8.69c1.6,0,2.68,0,3.65,0c0,2.78,0,5.36,0,8.35
	c3.14,0,6.08,0,9.29,0c0.17,1.22,0.29,2.08,0.48,3.4c-4.78,0-9.22,0-13.87,0c0,2.66,0,4.91,0,7.71c3.47,0,6.87,0,10.7,0
	c-0.41,8.47-0.52,16.42-1.29,24.3c-0.47,4.75-2.05,5.28-9.78,4.91c-0.3-0.68-0.66-1.5-1.17-2.64c2.3-0.15,4.26-0.27,6.8-0.43
	c2.59-7.12,1.25-14.79,2.39-22.52c-2.82,0-5.22,0-7.92,0c-1.37,8.6-1.46,17.55-6.65,24.99c-0.6-0.12-0.97-0.1-1.21-0.26
	c-0.41-0.27-0.73-0.65-1.3-1.18c5.93-10.68,6.06-22.42,6.15-34.59c-1.76-0.16-3.34-0.31-5.21-0.48
	C163.44,232.53,163.29,231.78,163.01,230.34z"/>
<path class="st2" d="M123.48,246.6c-3.09,0-6.18,0-9.59,0c0-2.47,0-4.65,0-6.78c3.6-1.75,6.6-0.13,9.65,0.77
	C123.52,242.6,123.5,244.6,123.48,246.6z"/>
<path class="st1" d="M70.94,247.04c0-3.16,0-6.09,0-9.32c2.51,0,4.88,0,7.49,0c0,3.06,0,5.99,0,9.32
	C76.17,247.04,73.81,247.04,70.94,247.04z"/>
<path class="st1" d="M67.51,247.23c-2.39,0-4.32,0-6.48,0c0-3.23,0-6.27,0-9.56c2.18,0,4.22,0,6.48,0
	C67.51,240.84,67.51,243.89,67.51,247.23z"/>
<path class="st1" d="M72.43,228.52c-1.26,2.25-2.21,3.94-3.22,5.74c-2.86,0-5.64,0-8.96,0c1.4-2.09,2.62-3.91,3.84-5.74
	C66.71,228.52,69.17,228.52,72.43,228.52z"/>
<path class="st1" d="M144.28,244.62c2.8,0,5.36,0,8.16,0c0,2.9,0,5.6,0,8.56c-2.68,0-5.25,0-8.16,0
	C144.28,250.53,144.28,247.83,144.28,244.62z"/>
<path class="st1" d="M140.54,253.22c-2.61,0-5,0-7.59,0c0-2.94,0-5.67,0-8.59c2.61,0,5,0,7.59,0
	C140.54,247.57,140.54,250.3,140.54,253.22z"/>
</svg>
