<?xml version="1.0" encoding="UTF-8" standalone="no"?>
<svg
   width="500"
   zoomAndPan="magnify"
   viewBox="0 0 375 374.999991"
   height="500"
   preserveAspectRatio="xMidYMid meet"
   version="1.0"
   id="svg47"
   sodipodi:docname="istanbul logo.svg"
   xml:space="preserve"
   inkscape:version="1.3.2 (091e20e, 2023-11-25)"
   xmlns:inkscape="http://www.inkscape.org/namespaces/inkscape"
   xmlns:sodipodi="http://sodipodi.sourceforge.net/DTD/sodipodi-0.dtd"
   xmlns="http://www.w3.org/2000/svg"
   xmlns:svg="http://www.w3.org/2000/svg"><sodipodi:namedview
     id="namedview47"
     pagecolor="#ffffff"
     bordercolor="#999999"
     borderopacity="1"
     inkscape:showpageshadow="2"
     inkscape:pageopacity="0"
     inkscape:pagecheckerboard="0"
     inkscape:deskcolor="#d1d1d1"
     inkscape:zoom="1.2073421"
     inkscape:cx="270.42875"
     inkscape:cy="246.40904"
     inkscape:window-width="1680"
     inkscape:window-height="916"
     inkscape:window-x="0"
     inkscape:window-y="25"
     inkscape:window-maximized="0"
     inkscape:current-layer="svg47" /><defs
     id="defs1"><g
       id="g1" /><clipPath
       id="5e77287248"><path
         d="M 87.746094 99.96875 L 302.246094 99.96875 L 302.246094 208.71875 L 87.746094 208.71875 Z M 87.746094 99.96875 "
         clip-rule="nonzero"
         id="path1" /></clipPath></defs><ellipse
     style="fill:#800000;stroke-width:0.888472"
     id="path47"
     cx="187.5"
     cy="187.5"
     rx="158.92117"
     ry="153.64778"
     inkscape:label="circle" /><g
     id="g48"
     inkscape:label="logo"
     transform="translate(-7.7565957,-2.6562523)"
     style="fill:#f9f9f9"><path
       fill="#2b2b2b"
       d="m 204.75391,130.50391 h -27.66016 c 1.19922,-1.97266 5.40234,-7.84766 13.80859,-7.84766 8.49219,0 12.69532,5.875 13.85157,7.84766 z m 22.90234,14.19531 h -0.38672 c -0.55469,0 -0.98437,0.38672 -1.07031,0.90234 h 2.48828 c -0.043,-0.51562 -0.47266,-0.90234 -1.03125,-0.90234 z m -80.71484,-20.28516 h 2.48828 l -1.2461,-5.96093 z m 85.60546,0.25782 h 3.00391 l -1.50391,-6.4336 z M 127.76953,115.75 h 4.67578 l -2.35937,-9.34766 z m 118.88672,-9.39062 -2.31641,9.39062 h 4.63282 z m -91.73828,38.33984 h -0.38672 c -0.55469,0 -0.98438,0.38672 -1.07031,0.90234 h 2.48828 c -0.043,-0.51562 -0.47266,-0.90234 -1.03125,-0.90234 z m 0,0"
       fill-opacity="1"
       fill-rule="nonzero"
       id="path2"
       style="fill:#f9f9f9" /><g
       clip-path="url(#5e77287248)"
       id="g3"
       style="fill:#f9f9f9"
       transform="translate(0.32213266)"><path
         fill="#474747"
         d="m 285.47266,191.70703 c -2.61719,0 -5.23438,0.60156 -7.55079,1.71484 -0.38671,-0.25781 -0.8125,-0.47265 -1.19921,-0.6875 v -9.21875 c 0,-0.25781 -0.21485,-0.47265 -0.47266,-0.47265 h -4.89063 v -0.73047 c 0,-6.47656 -8.23437,-12.05078 -14.96484,-12.05078 -1.46094,0 -3.04687,0.25781 -4.54687,0.77344 v -9.60938 c 0,-0.043 0,-0.043 0,-0.0859 l -2.40235,-11.92187 v -21.1875 l 0.89844,-0.89844 c 0.0859,-0.0859 0.12891,-0.21484 0.12891,-0.34375 v -2.44531 c 0,-0.25781 -0.21485,-0.47266 -0.46875,-0.47266 h -0.5586 v -7.41797 h 0.12891 c 0.043,0 0.0859,0 0.0859,0 0,0 0,0 0.043,0 0.043,0 0.043,0 0.0859,-0.043 0,0 0,0 0.043,0 0,0 0.043,0 0.043,-0.043 0,0 0,0 0.043,-0.043 l 0.0859,-0.0859 c 0,0 0,0 0,-0.043 0,-0.043 0,-0.043 0.043,-0.0859 0,-0.043 0,-0.043 0,-0.0859 0,0 0,0 0,-0.043 0,-0.043 0,-0.043 0,-0.0859 l -2.91796,-11.70703 v -3.94531 c 0,-0.25782 -0.21485,-0.47266 -0.47266,-0.47266 -0.25781,0 -0.47266,0.21484 -0.47266,0.47266 v 3.98828 l -2.91406,11.70703 c 0,0.043 0,0.043 0,0.0859 0,0 0,0 0,0.043 0,0.043 0,0.043 0,0.0859 0,0.043 0,0.043 0.043,0.0859 0,0 0,0 0,0.043 l 0.0859,0.0859 c 0,0 0,0 0.043,0.043 l 0.043,0.043 c 0,0 0,0 0.043,0 0,0 0.043,0 0.0859,0.043 0,0 0,0 0.043,0 0.043,0 0.0859,0 0.0859,0 h 0.1289 v 7.46094 h -0.55859 c -0.25781,0 -0.47266,0.21484 -0.47266,0.47266 v 2.35937 c 0,0.12891 0.043,0.25781 0.12891,0.34375 l 0.90234,0.89844 v 21.1875 l -2.23047,11.10937 -1.84765,-1.75781 c -0.0391,-0.043 -0.125,-0.0859 -0.21094,-0.12891 l -1.97266,-0.42968 -1.20312,-6.60547 v -18.52735 l 0.38672,-0.42968 c 0.0859,-0.0859 0.1289,-0.21485 0.1289,-0.30078 v -1.80079 c 0,-0.25781 -0.21484,-0.47265 -0.47265,-0.47265 h -0.043 v -4.88672 c 0,0 0,0 0,-0.043 0.0859,-0.1289 0.12891,-0.25781 0.0859,-0.38672 0,-0.043 0,-0.043 0,-0.0859 0,-0.0859 -0.043,-0.21485 -0.0859,-0.25782 l -1.88672,-8.27734 c 0,0 0,-0.043 -0.043,-0.043 0.043,-0.043 0.043,-0.12891 0.043,-0.17187 v -2.83204 c 0,-0.2539 -0.21484,-0.46875 -0.47266,-0.46875 -0.25781,0 -0.47265,0.21485 -0.47265,0.46875 v 2.83204 c 0,0.043 0,0.1289 0.043,0.17187 0,0 0,0.043 -0.043,0.043 l -1.88672,8.27734 c -0.0859,0.0859 -0.12891,0.17188 -0.12891,0.30078 0,0.043 0,0.0859 0,0.12891 -0.043,0.12891 0,0.25781 0.0859,0.38672 0,0 0,0 0,0.043 v 4.84375 h -0.043 c -0.2539,0 -0.46875,0.21484 -0.46875,0.47265 v 1.80078 c 0,0.12891 0.043,0.21485 0.12891,0.30079 l 0.38281,0.42968 v 16.6836 l -1.80078,-0.60157 v -3.08593 c 0,-0.21485 -0.12891,-0.38672 -0.30078,-0.42969 -0.0859,-1.03125 -0.94141,-1.88672 -1.97266,-1.88672 h -0.38281 c -1.07422,0 -1.93359,0.8125 -1.97656,1.88672 -0.16797,0.043 -0.29688,0.21484 -0.29688,0.42969 v 0.46875 h -1.63281 v -4.2461 c 0.21484,-0.043 0.38672,-0.21093 0.38672,-0.46875 0,-0.25781 -0.21485,-0.47265 -0.47266,-0.47265 h -1.67187 c -2.14453,-2.27344 -5.10157,-3.60157 -8.10547,-3.60157 h -1.41406 v -0.6875 h 1.11328 c 0.25781,0 0.47265,-0.21484 0.47265,-0.47265 0,-0.25781 -0.21484,-0.47266 -0.47265,-0.47266 h -2.01563 l -1.67187,-3.90234 c -0.0859,-0.17188 -0.25782,-0.30078 -0.42969,-0.30078 h -1.24219 v -1.02735 c 0,-0.25781 -0.21484,-0.47265 -0.47265,-0.47265 h -1.41407 c -0.8164,-1.45703 -5.10547,-8.53516 -14.41015,-8.75 v -2.8711 c 0,-0.25781 -0.21485,-0.47265 -0.47266,-0.47265 -0.25781,0 -0.47266,0.21484 -0.47266,0.47265 v 2.8711 c -9.34765,0.21484 -13.63671,7.29297 -14.41015,8.75 h -1.41406 c -0.25782,0 -0.47266,0.21484 -0.47266,0.47265 v 1.02735 h -1.24219 c -0.17187,0 -0.34375,0.1289 -0.42969,0.30078 l -1.67187,3.90234 h -1.93359 c -0.25391,0 -0.46875,0.21485 -0.46875,0.47266 0,0.25781 0.21484,0.47265 0.46875,0.47265 h 1.03125 v 0.6875 h -1.11329 c -3.0039,0 -5.96484,1.32813 -8.10937,3.60157 h -1.75781 c -0.25782,0 -0.47266,0.21484 -0.47266,0.47265 0,0.21485 0.17188,0.42578 0.38672,0.46875 v 4.2461 h -1.62891 v -0.46875 c 0,-0.21485 -0.1289,-0.38672 -0.30078,-0.42969 -0.0859,-1.03125 -0.9414,-1.88672 -1.97265,-1.88672 h -0.38672 c -1.07032,0 -1.92969,0.8125 -1.97266,1.88672 -0.17187,0.043 -0.30078,0.21484 -0.30078,0.42969 v 2.91406 L 150.5,150.01953 v -16.94141 l 0.34375,-0.42968 c 0.0859,-0.0859 0.12891,-0.17188 0.12891,-0.30078 v -1.80079 c 0,-0.25781 -0.21485,-0.47265 -0.47266,-0.47265 v -4.88672 c 0.0859,-0.12891 0.12891,-0.25781 0.0859,-0.38672 l -1.80078,-8.66406 c 0,-0.043 -0.043,-0.0859 -0.043,-0.12891 0,-0.043 0,-0.043 0,-0.0859 v -2.83204 c 0,-0.2539 -0.21485,-0.46875 -0.47266,-0.46875 -0.25781,0 -0.46875,0.21485 -0.46875,0.46875 v 2.83204 c 0,0.0859 0.043,0.17187 0.0859,0.25781 l -1.80469,8.66406 c 0,0.043 0,0.043 0,0.0859 v 0.043 c 0,0.043 0,0.043 0,0.0859 0,0 0,0 0,0.043 0,0 0,0.043 0.043,0.043 0,0 0,0 0,0.043 0,0 0,0.043 0.043,0.043 v 4.88672 c -0.25391,0 -0.46875,0.21484 -0.46875,0.47265 v 1.80078 c 0,0.12891 0.043,0.21485 0.1289,0.30079 l 0.33985,0.42968 v 22.85938 l -10.84766,4.24609 c -0.043,0 -0.0859,0.043 -0.1289,0.0859 l -2.1875,-10.80859 v -21.27344 l 0.89843,-0.89844 c 0.0859,-0.0859 0.12891,-0.21484 0.12891,-0.34375 v -2.44531 c 0,-0.25781 -0.21484,-0.47266 -0.47266,-0.47266 h -0.55468 v -7.41797 h 0.1289 c 0.043,0 0.0859,0 0.0859,0 0,0 0,0 0.043,0 0.043,0 0.043,0 0.0859,-0.043 0,0 0,0 0.043,0 l 0.0391,-0.043 c 0,0 0,0 0.043,-0.043 l 0.0859,-0.0859 c 0,0 0,0 0,-0.043 0,-0.043 0,-0.043 0.043,-0.0859 0,-0.043 0,-0.043 0,-0.0859 0,0 0,0 0,-0.043 0,-0.043 0,-0.043 0,-0.0859 l -2.91406,-11.70703 v -3.94531 c 0,-0.25782 -0.21484,-0.47266 -0.47266,-0.47266 -0.25781,0 -0.47265,0.21484 -0.47265,0.47266 v 3.98828 l -2.91406,11.70703 c 0,0.043 0,0.043 0,0.0859 0,0 0,0 0,0.043 0,0.043 0,0.0859 0,0.0859 0,0.043 0,0.043 0.043,0.0859 0,0 0,0 0,0.043 l 0.0859,0.0859 c 0,0 0,0 0.043,0.043 l 0.043,0.043 c 0,0 0,0 0.043,0 0,0 0.043,0 0.082,0.043 0,0 0,0 0.043,0 0.043,0 0.0859,0 0.0859,0 h 0.1289 v 7.46094 h -0.55469 c -0.25781,0 -0.47265,0.21484 -0.47265,0.47266 v 2.35937 c 0,0.12891 0.043,0.25781 0.1289,0.34375 l 0.89844,0.89844 v 21.1875 l -2.39844,11.92187 c 0,0.043 0,0.043 0,0.0859 v 6.08984 h -9.09375 c -0.0859,0 -0.1289,0 -0.21484,0.043 l -4.11719,2.1875 c -0.17187,0.0859 -0.30078,0.30078 -0.21484,0.51563 0.043,0.21484 0.25781,0.34375 0.42969,0.34375 h 0.38672 v 11.96484 c -0.47266,0.21485 -0.94532,0.47266 -1.41797,0.77344 -2.1875,-1.11719 -4.67188,-1.71484 -7.16016,-1.71484 -8.75,0 -15.871094,7.11718 -15.871094,15.86718 0,0.0859 0,0.21485 0,0.30078 v 0.12891 c 0,0.25781 0.214844,0.47266 0.472656,0.42969 0.257813,0 0.472657,-0.21485 0.429688,-0.47266 v -0.1289 c 0,-0.0859 0,-0.17188 0,-0.25782 0,-8.23437 6.691406,-14.96875 14.96875,-14.96875 2.40234,0 4.84375,0.60157 6.94531,1.71485 0.17188,0.0859 0.34375,0.0859 0.47266,-0.043 1.54297,-1.11328 3.34766,-1.67188 5.23437,-1.67188 4.92969,0 8.96094,4.03125 8.96094,8.96485 0,0.1289 0,0.25781 0,0.38672 0,0.17187 0.0859,0.34375 0.21485,0.42968 0.1289,0.082 0.30078,0.082 0.47265,0 0.73047,-0.42968 1.54297,-0.73047 2.40234,-0.90234 0.17188,-0.043 0.30079,-0.17188 0.34375,-0.34375 1.07032,-5.48828 5.91797,-9.43359 11.53516,-9.43359 5.19141,0 9.69531,3.34375 11.23828,8.27734 0.043,0.12891 0.17188,0.25781 0.30078,0.30078 0.12891,0.0391 0.30078,0 0.42969,-0.0859 4.19922,-3.47656 9.51953,-5.36328 14.96484,-5.36328 3.81641,0 7.59375,0.94531 10.9375,2.70313 0.17188,0.0859 0.34375,0.0859 0.47266,-0.043 2.44531,-1.75781 5.27344,-2.66016 8.27734,-2.66016 7.84766,0 14.19532,6.39063 14.19532,14.19531 0,0.21485 0,0.42969 0,0.60157 0,0.17187 0.0859,0.34375 0.21484,0.42968 0.12891,0.0859 0.30078,0.0859 0.47266,0 1.19922,-0.64453 2.44531,-1.16015 3.77343,-1.45703 0.17188,-0.043 0.30079,-0.17187 0.34375,-0.34375 1.71485,-8.62109 9.34766,-14.88281 18.1836,-14.88281 6.6914,0 12.91015,3.64453 16.16797,9.51953 0.1289,0.21485 0.38672,0.30078 0.60156,0.17188 1.80078,-0.89844 3.81641,-1.3711 5.83203,-1.3711 5.91797,0 11.06641,3.98828 12.22266,9.4336 0.043,0.17187 0.17187,0.30078 0.34375,0.34375 0.90234,0.17187 1.75781,0.51562 2.53125,0.90234 0.1289,0.0859 0.34375,0.0859 0.47265,0 0.12891,-0.0859 0.21485,-0.25781 0.21485,-0.42969 0,-0.1289 0,-0.25781 0,-0.38672 0,-4.93359 4.28906,-8.96484 9.51953,-8.96484 2.01562,0 3.94531,0.60156 5.57422,1.71875 0.1289,0.0859 0.30078,0.0859 0.47265,0.043 2.27344,-1.11719 4.80469,-1.71875 7.37891,-1.71875 8.74609,0 15.86719,6.69141 15.86719,14.96875 0,0.0859 0,0.17187 0,0.25781 v 0.12891 c 0,0.25781 0.21484,0.47265 0.42968,0.47265 0.25782,0 0.47266,-0.21484 0.47266,-0.42968 v -0.12891 c 0,-0.0859 0,-0.17187 0,-0.30078 0.12891,-8.70703 -7.37891,-15.82422 -16.64062,-15.82422 z m -34.22657,-19.38672 c 0.043,0 0.0859,0.043 0.17188,0.043 0.0859,0 0.17187,-0.043 0.25781,-0.0859 0.0859,-0.043 0.12891,-0.1289 0.17188,-0.21484 1.54296,-0.51563 3.08593,-0.8125 4.58593,-0.8125 6.17969,0 14.02735,5.23047 14.02735,11.10547 v 0.73047 h -28.09375 v -0.73047 c 0,-4.28906 4.16015,-8.23438 8.79297,-10.03516 z m -9.82031,10.76563 h -9.26562 v -0.73047 c 0,-1.75781 -0.60157,-3.47266 -1.62891,-4.97266 v -15.95703 l 7.375,2.78906 c 0.043,0 0.0859,0.043 0.17187,0.043 h 6.39063 l -0.0859,5.40235 c 0,0.21484 0.12891,0.38671 0.30078,0.42968 l 5.14844,1.80078 c -4.58984,2.10157 -8.40625,6.08985 -8.40625,10.50782 z m -5.49219,3.38672 c -1.15625,-0.89844 -2.40234,-1.62891 -3.73047,-2.23047 v -0.21485 h 3.73047 z m 10.72266,-80.11328 2.35937,9.34765 h -4.67578 z M 248.5,116.65234 v 7.46094 h -3.73047 v -7.46094 z m -4.75781,10.16407 v -1.75782 h 5.74609 v 1.75782 l -0.77344,0.77343 h -4.24609 z m 4.75781,1.67187 v 20.5 h -3.73047 v -20.5 z m -3.77344,21.44531 h 3.90235 l 2.35937,11.57813 V 171.25 l -5.61719,-1.97266 0.0859,-5.53515 c 0,-0.043 0,-0.0859 0,-0.0859 0,0 0,0 0,-0.043 0,-0.043 0,-0.043 -0.043,-0.0859 0,0 0,0 0,-0.043 l -0.043,-0.043 c 0,0 0,0 -0.043,-0.043 l -0.043,-0.043 -2.83204,-2.10156 z m -10.63672,-31.65234 1.33203,5.91797 h -2.66015 z m -1.41406,6.86328 h 2.78906 v 4.92969 h -2.78906 z m -0.51562,5.83203 h 3.77343 v 1.15625 l -0.25781,0.25781 H 232.375 l -0.25781,-0.25781 v -1.15625 z m 3.30468,2.35938 v 17.625 l -1.24609,-0.42578 -1.5,-0.47266 v -16.72656 z m -5.49218,18.39843 v -1.58593 l 1.88671,0.64062 c 0.0859,0.12891 0.21485,0.17188 0.38672,0.17188 0.043,0 0.0859,0 0.12891,0 l 1.54297,0.47265 1.58984,0.5586 1.11328,6.0039 -4.67578,-1.03125 c -0.25781,-0.2539 -0.9414,-0.85547 -1.97265,-1.54297 z m -2.70313,-7.03515 h 0.38672 c 0.55859,0 0.98828,0.38672 1.07422,0.90234 h -2.48828 c 0.043,-0.51562 0.51562,-0.90234 1.02734,-0.90234 z m -1.37109,1.84375 h 3.13281 v 4.71875 h -3.13281 z m -0.47266,5.62109 h 3.60547 v 2.69922 c -1.63281,-0.85547 -3.82031,-1.62891 -6.60547,-1.62891 -6.04687,0 -8.66406,3.6875 -8.75,3.85938 -0.12891,0.21484 -0.0859,0.51562 0.12891,0.64453 0.21484,0.12891 0.51562,0.0859 0.64453,-0.12891 0,0 0.59765,-0.85546 1.88672,-1.71484 1.19922,-0.77344 3.21484,-1.71484 6.08984,-1.71484 5.57422,0 8.92188,3.47265 8.92188,3.51562 0.043,0.0859 0.125,0.12891 0.2539,0.12891 l 7.63672,1.67187 2.31641,2.27344 c 0,0 0,0 0.043,0.043 l 1.92968,1.45703 h -5.40625 l -7.80468,-2.91406 -3.00391,-3.98828 c -0.043,-0.043 -0.082,-0.0859 -0.125,-0.12891 -0.043,-0.043 -0.0859,-0.043 -0.17188,-0.043 -0.0859,0 -2.05859,-0.34375 -4.46093,0 -3.21875,0.47266 -5.7461,1.92969 -7.20703,4.2461 -0.12891,0.21484 -0.0859,0.51562 0.1289,0.64062 0.21485,0.12891 0.51563,0.0859 0.64453,-0.125 2.78516,-4.41797 8.79297,-4.07812 10.33594,-3.90625 v 16.38672 c -2.66016,-1.80469 -5.875,-2.96094 -8.87891,-3.08984 v -7.1211 c 0,-0.043 0,-0.0859 0,-0.0859 0,-0.0391 -0.043,-0.082 -0.043,-0.082 -0.043,-0.043 -0.043,-0.0859 -0.0859,-0.0859 l -4.80469,-4.20313 v -6.47656 h 12.78125 z m 4.20313,8.70703 v 15.26563 c -0.64063,-0.72656 -1.3711,-1.41406 -2.1875,-2.0586 v -16.08203 z m -64.67579,1.5 v -0.77343 c 0,-0.6836 -0.55468,-1.24219 -1.24218,-1.24219 h -0.21485 c -0.6875,0 -1.24218,0.55859 -1.24218,1.24219 v 1.80078 c 0,0.25781 0.21484,0.47265 0.46875,0.47265 h 1.54687 v 7.42188 c -1.58984,-0.64453 -3.39062,-0.98828 -5.27734,-0.98828 -2.57422,0 -5.48828,0.60156 -7.84766,1.88672 v -6.94922 c 0,-4.24219 3.47266,-7.71875 7.71875,-7.71875 2.875,0 5.53516,1.6289 6.86328,4.16015 z m 12.9961,1.28516 V 171.25 h -12.73828 v -7.59375 z m -13.89453,-2.05859 v 1.33203 h -0.85938 v -1.33203 c 0,-0.17188 0.12891,-0.34375 0.34375,-0.34375 h 0.21485 c 0.1289,0.043 0.30078,0.17187 0.30078,0.34375 z m -5.0625,9.60937 c 3.73047,0 7.16406,1.54297 9.00781,3.94531 h -18.91406 c 1.37109,-1.71484 4.54687,-3.94531 9.90625,-3.94531 z m 8.49218,2.05859 c -0.42968,-0.38671 -0.89843,-0.73046 -1.41406,-1.07421 h 11.87891 v 1.07421 z m 10.25,0.89844 c -2.69921,2.1875 -4.58984,5.0625 -4.58984,8.14844 v 0.73047 h -3.73047 v -6.99219 h 1.46094 c 0.25391,0 0.46875,-0.21484 0.46875,-0.46875 0,-0.25781 -0.21484,-0.47266 -0.46875,-0.47266 h -1.71875 l -0.21484,-0.30078 c 0,0 0,0 -0.043,-0.043 -0.16797,-0.21484 -0.33985,-0.42968 -0.51172,-0.64453 h 9.34765 z m -8.32031,9.82031 h 3.73047 v 0.64454 c -1.24219,-0.30079 -2.48437,-0.51563 -3.73047,-0.64454 z m 4.63281,-1.6289 c 0,-5.875 7.84766,-11.10547 14.02344,-11.10547 6.17578,0 14.02735,5.23047 14.02735,11.10547 v 0.73047 h -28.09375 v -0.73047 z m 2.53125,-40.95703 v -2.875 c 0,-0.51172 -0.17187,-0.98438 -0.47265,-1.3711 h 29.72265 c -0.30078,0.38672 -0.47265,0.85938 -0.47265,1.3711 v 2.875 h -1.41406 c 0,-0.043 -0.043,-0.043 -0.043,-0.0859 l -1.67188,-1.67188 c -0.17187,-0.17187 -0.47265,-0.17187 -0.64453,0 l -1.62891,1.62891 c -0.0859,0.0859 -0.1289,0.21484 -0.1289,0.34375 v 4.67578 c -1.88672,-1.84765 -4.28906,-3.17578 -6.99219,-3.77734 -1.19922,-0.25391 -2.44531,-0.25391 -3.64453,0 -2.70313,0.60156 -5.10547,1.92969 -6.99219,3.77734 v -4.67578 c 0,-0.12891 -0.043,-0.25781 -0.1289,-0.34375 l -1.62891,-1.62891 c -0.17188,-0.17187 -0.47266,-0.17187 -0.64453,0 l -1.67188,1.67188 c -0.043,0.043 -0.043,0.043 -0.043,0.0859 z m 1.32813,0.9414 v 2.70313 l -1.32813,-0.5586 v -2.14453 z m 31.95312,2.91797 1.88672,0.77344 v 12.39453 h -7.76172 v -4.24609 c 0,-0.043 0,-0.0859 0,-0.12891 v -8.0625 l 1.84375,-0.77344 z m -3.60156,-0.89844 v -5.83593 c 0,-0.76953 0.59766,-1.3711 1.3711,-1.3711 h 0.47265 c 0.76953,0 1.3711,0.60157 1.3711,1.3711 v 5.83593 z m 5.83203,15.00782 3.85938,3.34765 h -11.96485 v -3.34765 z m -8.10547,-14.32422 v -2.70313 h 1.32813 v 2.14453 z m -0.90234,0.85937 v 5.01563 c -0.21484,-0.38281 -0.42969,-0.8125 -0.64453,-1.15625 -0.46875,-0.90235 -1.07031,-1.71485 -1.71484,-2.48828 v -5.48828 l 1.16015,-1.16016 1.19922,1.20312 v 3.6875 c -0.043,0.12891 -0.0859,0.25782 0,0.38672 z m -24.23047,-0.34375 v -3.6875 l 1.19922,-1.20312 1.16016,1.16015 v 5.44532 c -0.64453,0.77343 -1.2461,1.58593 -1.71875,2.48828 -0.21094,0.38672 -0.42578,0.77344 -0.64063,1.15625 v -5.01563 c 0.043,-0.1289 0.043,-0.25781 0,-0.34375 z m 3.17188,2.14453 c 1.88672,-2.14453 4.41797,-3.6875 7.33593,-4.33203 1.07032,-0.25781 2.1875,-0.25781 3.21485,0 2.91797,0.64453 5.44922,2.1875 7.33594,4.33203 0,0 0.89843,1.11329 1.75781,2.48829 0.59765,1.07031 1.07031,2.27343 1.32812,3.51562 h -24.01562 c 0.30078,-1.24219 0.72656,-2.44531 1.32812,-3.51562 0.81641,-1.375 1.71485,-2.44532 1.71485,-2.48829 z m 21.05859,6.94922 v 1.97266 h -24.23047 v -1.97266 z m -14.96875,15.65235 c -3.08594,0 -6.47656,1.16015 -9.21875,3.04687 v -14.41015 c 0,-0.0859 0,-0.12891 -0.043,-0.17188 v -1.16016 H 203.082 v 15.91407 c 0,0.082 0,0.125 0.043,0.21093 v 0.043 c 0,0.25782 0.21484,0.47266 0.47266,0.47266 h 3.25781 c -1.97266,1.58594 -3.47266,3.51562 -4.16016,5.61719 -1.80078,-5.40235 -8.75,-9.5625 -14.58203,-9.5625 z m 15.87109,2.96093 v -1.07421 h 5.91797 c -0.64453,0.30078 -1.24609,0.6875 -1.80078,1.07421 z m 0,-2.01562 v -7.59375 h 12.73829 v 6.60547 c -0.17188,0.043 -0.34375,0.043 -0.51563,0.0859 -0.98828,0.0859 -2.01562,0.25781 -3.04687,0.55859 -0.42969,0.0859 -0.8125,0.17187 -1.24219,0.25781 l -0.47266,0.12891 h -7.46094 z m 8.70313,-19.98828 v -5.70313 h 9.73828 v 3.51563 c -1.28906,-0.34375 -2.44531,-0.30078 -2.66016,-0.30078 -0.34375,0 -4.33203,-0.12891 -5.91796,2.48828 z m 10.67969,-3.77344 H 225 v 2.91797 c -0.47266,-0.42969 -1.03125,-0.77344 -1.63281,-0.98828 z m 1.20312,3.77344 h -9.52344 c 1.54688,-1.67188 4.71875,-1.54297 4.76172,-1.54297 0,0 0,0 0.043,0 0,0 0,0 0.043,0 -0.043,0 3.08984,-0.12891 4.67578,1.54297 z m -3.21875,-8.92188 h 1.11719 v 2.31641 h -9.4375 v -2.31641 z m -9.34765,-3.60156 h 1.41406 c 2.48828,0 4.89062,0.94531 6.77734,2.66016 h -7.76172 c -0.043,0 -0.0859,0 -0.1289,0 -0.043,0 -0.0859,0 -0.12891,0 h -0.21484 v -2.66016 z m -0.25782,6.30469 -1.32812,-0.5586 v -2.1875 h 1.32812 z m -0.6875,-7.89063 v 4.2461 h -0.64062 v -2.875 c 0,-0.51172 -0.17188,-0.98438 -0.47266,-1.3711 h 0.8125 z m -20.11328,-14.49609 c 8.44922,0 12.65235,5.83203 13.8086,7.84766 h -27.66016 c 1.19922,-1.97266 5.40234,-7.84766 13.85156,-7.84766 z m -17.71484,10.25 h 1.41797 c 0.25781,0 0.47265,-0.21484 0.47265,-0.47266 v -1.02734 h 31.69141 v 1.02734 c 0,0.25782 0.21484,0.47266 0.47266,0.47266 h 1.41406 l 1.375,3.25781 h -1.84375 c 0,-0.043 0.043,-0.0859 0.043,-0.0859 v -1.71484 c 0,-0.42969 -0.34375,-0.76953 -0.77344,-0.76953 h -0.17188 c -0.42968,0 -0.77343,0.33984 -0.77343,0.76953 v 1.71484 c 0,0.043 0,0.0859 0.043,0.0859 h -0.89844 c 0,-0.043 0.043,-0.0859 0.043,-0.0859 v -3.34375 c 0,-0.42968 -0.34375,-0.77343 -0.77344,-0.77343 h -0.17188 c -0.42968,0 -0.76953,0.34375 -0.76953,0.77343 v 3.34375 c 0,0.043 0,0.0859 0.043,0.0859 h -0.90234 c 0,-0.043 0.043,-0.0859 0.043,-0.0859 v -3.34375 c 0,-0.42968 -0.34375,-0.77343 -0.77344,-0.77343 h -0.17188 c -0.42578,0 -0.76953,0.34375 -0.76953,0.77343 v 3.34375 c 0,0.043 0,0.0859 0.043,0.0859 h -0.90234 c 0,-0.043 0.043,-0.0859 0.043,-0.0859 v -3.34375 c 0,-0.42968 -0.34375,-0.77343 -0.76953,-0.77343 h -0.17188 c -0.42969,0 -0.77344,0.34375 -0.77344,0.77343 v 3.34375 c 0,0.043 0,0.0859 0.043,0.0859 h -0.90234 c 0,-0.043 0.043,-0.0859 0.043,-0.0859 v -3.34375 c 0,-0.42968 -0.33985,-0.77343 -0.76953,-0.77343 h -0.17188 c -0.42969,0 -0.77344,0.34375 -0.77344,0.77343 v 3.34375 c 0,0.043 0,0.0859 0.043,0.0859 h -0.89844 c 0,-0.043 0.043,-0.0859 0.043,-0.0859 v -3.34375 c 0,-0.42968 -0.34375,-0.77343 -0.77343,-0.77343 h -0.17188 c -0.42969,0 -0.77344,0.34375 -0.77344,0.77343 v 3.34375 c 0,0.043 0,0.0859 0.043,0.0859 h -0.89844 c 0,-0.043 0.043,-0.0859 0.043,-0.0859 v -3.34375 c 0,-0.42968 -0.34375,-0.77343 -0.77343,-0.77343 h -0.17188 c -0.42578,0 -0.76953,0.34375 -0.76953,0.77343 v 3.34375 c 0,0.043 0,0.0859 0.043,0.0859 h -0.90235 c 0,-0.043 0.043,-0.0859 0.043,-0.0859 v -3.34375 c 0,-0.42968 -0.34375,-0.77343 -0.77343,-0.77343 h -0.16797 c -0.42969,0 -0.77344,0.34375 -0.77344,0.77343 v 3.34375 c 0,0.043 0,0.0859 0.043,0.0859 h -0.90235 c 0,-0.043 0.043,-0.0859 0.043,-0.0859 v -3.34375 c 0,-0.42968 -0.34375,-0.77343 -0.76953,-0.77343 h -0.17187 c -0.42969,0 -0.77344,0.34375 -0.77344,0.77343 v 3.34375 c 0,0.043 0,0.0859 0.043,0.0859 h -0.89844 c 0,-0.043 0.043,-0.0859 0.043,-0.0859 v -3.34375 c 0,-0.42968 -0.34375,-0.77343 -0.77344,-0.77343 h -0.17187 c -0.42969,0 -0.77344,0.34375 -0.77344,0.77343 v 3.34375 c 0,0.043 0,0.0859 0.043,0.0859 h -0.89844 c 0,-0.043 0.043,-0.0859 0.043,-0.0859 v -3.34375 c 0,-0.42968 -0.34375,-0.77343 -0.77344,-0.77343 h -0.17187 c -0.42969,0 -0.76953,0.34375 -0.76953,0.77343 v 3.34375 c 0,0.043 0,0.0859 0.043,0.0859 h -1.28906 c 0,-0.043 0.043,-0.0859 0.043,-0.0859 v -3.34375 c 0,-0.42968 -0.34375,-0.77343 -0.76953,-0.77343 h -0.17188 c -0.42968,0 -0.77343,0.34375 -0.77343,0.77343 v 3.34375 c 0,0.043 0,0.0859 0.043,0.0859 h -0.94532 c 0,-0.043 0.043,-0.0859 0.043,-0.0859 v -3.34375 c 0,-0.42968 -0.33984,-0.77343 -0.76953,-0.77343 h -0.17187 c -0.42969,0 -0.77344,0.34375 -0.77344,0.77343 v 3.34375 c 0,0.043 0,0.0859 0.043,0.0859 h -0.94141 c 0,-0.043 0.043,-0.0859 0.043,-0.0859 v -1.71484 c 0,-0.42969 -0.34375,-0.76953 -0.77344,-0.76953 h -0.17187 c -0.42969,0 -0.77344,0.33984 -0.77344,0.76953 v 1.71484 c 0,0.043 0,0.0859 0.043,0.0859 h -1.3711 z m 2.40234,5.61719 v 5.83593 h -3.21484 v -5.83593 c 0,-0.76953 0.60156,-1.3711 1.37109,-1.3711 h 0.47266 c 0.77344,0 1.37109,0.60157 1.37109,1.3711 z m -4.80078,-1.3711 h 1.11328 c -0.30078,0.38672 -0.47265,0.85938 -0.47265,1.3711 v 2.875 h -0.64063 z m -0.6875,5.1875 h 1.32813 v 2.1875 l -1.32813,0.5586 z m 0,3.69141 1.88672,-0.77344 h 4.03125 l 1.84375,0.77344 v 8.0625 c 0,0.043 0,0.0859 0,0.12891 v 4.28906 h -7.76172 z m 7.80469,13.33594 v 3.34765 h -11.96485 l 3.85938,-3.34765 z m -9.17578,-20.62891 h 1.11328 v 2.66016 h -7.89063 c 1.88672,-1.71485 4.28907,-2.66016 6.77735,-2.66016 z m -9.00782,3.60156 h 9.4336 v 2.31641 h -9.4336 z m 0,3.21875 h 9.4336 v 5.70313 h -0.85547 c -1.58594,-2.57422 -5.57813,-2.48828 -5.91797,-2.48828 -0.17187,0 -1.33203,-0.043 -2.66016,0.30078 z m 2.61719,4.16016 c 0,0 0.043,0 0,0 0.043,0 0.043,0 0.043,0 0.043,0 3.21484,-0.12891 4.75781,1.54297 h -9.51953 c 1.54297,-1.67188 4.67578,-1.54297 4.71875,-1.54297 z m -5.14844,-2.23047 h 1.62891 v 1.92969 c -0.55469,0.21484 -1.15625,0.55859 -1.62891,0.98828 z m -2.70312,-2.78906 h 0.38672 c 0.55859,0 0.98828,0.38672 1.07422,0.90234 h -2.48828 c 0.043,-0.51562 0.51562,-0.90234 1.02734,-0.90234 z m -1.37109,1.84375 h 3.13281 v 4.71875 h -3.13281 z m -2.31641,4.20312 1.37109,-0.72656 v 1.71484 c 0,0.25782 0.21485,0.47266 0.47266,0.47266 h 16.51172 v 2.95703 h -2.65625 c -0.60156,-0.51172 -3.13281,-2.3164 -6.94922,-2.3164 -3.77344,0 -6.17578,1.80468 -6.77734,2.3164 h -1.97266 z m -2.61719,-32.29296 1.2461,5.96093 h -2.48829 z m 1.2461,6.90625 v 4.71484 h -2.48829 v -4.71484 z m -2.96094,5.61718 h 3.43359 v 1.19922 l -0.21484,0.25781 h -3.00391 l -0.21484,-0.25781 z m 2.96094,2.35938 v 21.35937 l -1.41797,0.46875 -1.07032,0.42969 v -22.25781 z m -14.10938,27.70312 c 0.043,0 0.12891,0 0.16797,-0.0391 l 11.15234,-4.33203 1.67188,-0.64453 1.58984,-0.51563 v 0.0859 c 0,0.25781 0.21094,0.47266 0.46875,0.47266 h 2.61719 c 0.12891,0 0.25781,-0.043 0.34375,-0.12891 0.043,-0.043 2.31641,-2.1875 6.26172,-2.1875 3.94531,0 6.43359,2.1875 6.47656,2.23047 0.0859,0.0859 0.21484,0.1289 0.30078,0.1289 h 2.82813 v 2.66016 l -2.78516,2.39844 c -1.50391,-2.74219 -4.41797,-4.45703 -7.55078,-4.45703 -3.6875,0 -6.85938,2.35547 -8.10547,5.66015 l -5.31641,-1.58593 c -0.0859,-0.043 -0.17187,-0.043 -0.25781,0 l -9.90625,3 v -2.27344 c 0,-0.043 0,-0.043 0,-0.0859 l -0.043,-0.30078 c 0,-0.0859 0.043,-0.0859 0.0859,-0.0859 z m -5.27734,-54.67968 2.35937,9.34765 h -4.67578 z m 1.88672,10.29296 v 7.46094 h -3.73047 v -7.46094 z m -4.76172,10.16407 v -1.75782 h 5.75 v 1.75782 l -0.77344,0.77343 h -4.24609 z m 4.76172,1.67187 v 20.5 h -3.73047 v -20.5 z m -6.17578,32.98047 2.35937,-11.57813 h 3.90234 l 2.35938,11.57813 v 2.48828 l -6.17578,1.75781 c -0.21485,0.043 -0.34375,0.25782 -0.34375,0.42969 v 2.91797 h -2.0586 z m 8.57812,12.48047 v 4.80469 h -5.57422 v -4.80469 z m -4.11719,-0.94141 1.45703,-0.77344 1.375,0.77344 z m 1.67188,-1.67187 c -0.12891,-0.0859 -0.30078,-0.0859 -0.42969,0 l -2.69922,1.37109 v -6.17578 l 5.61719,-1.58594 v 7.71875 z m -6.51953,-1.28907 h 2.44531 v 1.67188 h -7.33203 z m -9.34766,-1.58593 h 8.83594 v 0.8164 l -1.33203,0.46875 h -9.86328 z m -2.91797,13.76562 v -11.62109 h 7.67969 l -3.26172,1.11328 c -0.043,0 -0.0859,0.043 -0.12891,0.0859 -0.043,0.043 -0.0859,0.0859 -0.0859,0.0859 -0.043,0.043 -0.043,0.0859 -0.043,0.12891 0,0.043 0,0.043 0,0.0859 v 9.5664 c -0.30078,-0.043 -0.59766,-0.043 -0.89844,-0.043 -1.16016,0.0859 -2.23047,0.25781 -3.26172,0.59765 z m 14.75391,8.44922 c -0.5586,0.12891 -1.11328,0.34375 -1.62891,0.60156 -0.17187,-4.67578 -3.60156,-8.53515 -8.0625,-9.39062 v -9.22266 h 9.64844 v 6.08985 h -1.11328 c -0.25781,0 -0.47266,0.21484 -0.47266,0.47265 0,0.25781 0.21485,0.47266 0.47266,0.47266 h 8.10547 c 0.25781,0 0.47265,-0.21485 0.47265,-0.47266 V 164.6875 l 10.03516,-3.04688 4.92969,1.46094 v 9.69141 c -0.94141,0.64453 -1.71485,1.45703 -2.3125,2.35937 h -1.76172 c -0.25782,0 -0.46875,0.21485 -0.46875,0.47266 0,0.25391 0.21093,0.46875 0.46875,0.46875 h 1.54687 v 7.07812 c -2.10156,-1.54296 -4.71875,-2.40234 -7.46484,-2.40234 -5.96094,0 -11.10547,4.16016 -12.39453,9.90625 z m 36.92578,-6.64844 c -0.8125,0.0859 -1.58594,0.21485 -2.35547,0.34375 v -4.375 c 0,-0.55468 0.42578,-0.98437 0.98437,-0.98437 h 0.38672 c 0.5586,0 0.98438,0.42969 0.98438,0.98437 z m 0.90234,-0.082 v -3.94922 c 0,-1.07031 -0.85937,-1.92968 -1.92969,-1.92968 h -0.38671 c -1.07032,0 -1.92969,0.85937 -1.92969,1.92968 v 4.58985 c -3.38672,0.8164 -6.5625,2.3164 -9.34766,4.5039 -0.73047,-2.01562 -1.97656,-3.77343 -3.51953,-5.14453 v -7.85156 h 19.81641 v 7.85156 c -0.42969,-0.043 -0.85938,-0.043 -1.28907,-0.043 -0.42578,0 -0.89843,0 -1.41406,0.043 z m 12.60938,2.61328 c -1.28516,-0.68359 -2.66016,-1.19922 -4.07422,-1.6289 v -0.94532 h 10.89453 c -2.44531,0.30079 -4.76172,1.16016 -6.82031,2.57422 z m 18.22656,0.81641 c -0.17188,-0.90234 -0.94141,-1.58594 -1.88672,-1.58594 h -0.38672 c -0.043,0 -0.043,0 -0.0859,0 -1.67187,-0.94531 -3.60156,-1.54687 -5.57421,-1.80469 h 13.51171 v 14.83985 c -0.043,0 -0.0859,0.043 -0.0859,0.043 -0.043,-4.58594 -2.1875,-8.7461 -5.49219,-11.49219 z m 8.49219,10.42187 c -0.64453,0.17188 -1.28516,0.38672 -1.92969,0.60157 V 183.9844 h 3.6875 v 8.92188 c -0.76953,1.54297 -1.37109,3.17578 -1.75781,4.89062 z m 5.74609,-12.00781 h -0.38281 c -1.07422,0 -1.9336,0.85547 -1.9336,1.92969 v 2.57031 c -0.2539,0.34375 -0.51171,0.73047 -0.72656,1.07422 v -7.33594 h 8.75 c -1.5039,0.64453 -2.96094,1.46094 -4.24609,2.48828 -0.34375,-0.46875 -0.85938,-0.72656 -1.46094,-0.72656 z m -1.37109,3.34375 v -1.41406 c 0,-0.55859 0.42968,-0.98828 0.98828,-0.98828 h 0.38281 c 0.30078,0 0.55859,0.1289 0.77344,0.34375 -0.77344,0.60156 -1.5,1.32812 -2.14453,2.05859 z m 9.77734,-6.04687 h -16.03906 v -0.73047 c 0,-4.75781 5.14844,-9.08985 10.3789,-10.59375 0.94532,-0.17188 1.84375,-0.33985 2.78907,-0.51172 0.30078,-0.043 0.59765,-0.043 0.85547,-0.043 6.17578,0 14.02734,5.23047 14.02734,11.10547 v 0.73047 h -2.27344 c -1.58984,-0.38672 -3.21875,-0.64453 -4.84765,-0.64453 -1.67188,0.043 -3.30079,0.25781 -4.89063,0.6875 z m 21.66016,8.96484 c -1.07422,-1.84375 -2.44532,-3.47656 -3.98828,-4.80469 v -3.21875 h 4.58984 v 7.8086 c -0.21484,0.043 -0.42969,0.1289 -0.60156,0.21484 z m 10.12109,-0.60156 c -0.77344,-0.25781 -1.54297,-0.42969 -2.35937,-0.5586 v -3.21484 c 0,-0.55859 0.42968,-0.98828 0.98828,-0.98828 h 0.38672 c 0.55468,0 0.98437,0.42969 0.98437,0.98828 z m 10.63672,9.60547 v -4.62891 c 0,-0.55859 0.42969,-0.98828 0.98828,-0.98828 h 0.38281 c 0.25782,0 0.51563,0.0859 0.6875,0.25781 -1.24218,1.54297 -1.97265,3.38672 -2.05859,5.35938 z m 2.61719,-6.04688 c -0.34375,-0.30078 -0.77344,-0.51562 -1.28907,-0.51562 h -0.38281 c -1.07422,0 -1.93359,0.85937 -1.93359,1.93359 v 4.5 c -0.29688,-0.0859 -0.59766,-0.17187 -0.89844,-0.25781 -0.30078,-1.19922 -0.77344,-2.35547 -1.37109,-3.38672 v -0.8125 c 0,-1.07422 -0.85938,-1.93359 -1.9336,-1.93359 h -0.29687 c -0.38672,-0.38282 -0.81641,-0.72657 -1.28906,-1.07032 h 3.04687 c 0.25781,0 0.47266,-0.21484 0.47266,-0.47265 v -5.27344 c 0,-1.07422 -0.85938,-1.92969 -1.9336,-1.92969 h -0.38281 c -1.07422,0 -1.92969,0.85547 -1.92969,1.92969 v 5.23047 c -0.73047,-0.47266 -1.46093,-0.85547 -2.27343,-1.15625 v -4.07422 c 0,-1.07422 -0.85938,-1.92969 -1.92969,-1.92969 h -0.38672 c -1.07422,0 -1.92969,0.85547 -1.92969,1.92969 v 3.08594 c -0.34375,-0.043 -0.64453,-0.043 -0.98828,-0.043 -1.5,0 -2.95703,0.25781 -4.375,0.6875 v -7.46485 h 27.92188 v 7.85157 c -2.27344,0.38672 -4.375,1.54297 -5.91797,3.17187 z m -9.13672,-2.48828 v -4.80078 c 0,-0.55859 0.42969,-0.98828 0.98828,-0.98828 h 0.38281 c 0.5586,0 0.98828,0.42969 0.98828,0.98828 v 4.80078 z M 271.1875,191.75 v -7.76563 h 4.58984 v 8.36329 c -1.15625,-0.42579 -2.44531,-0.64063 -3.73047,-0.64063 -0.30078,0 -0.60156,0 -0.85937,0.043 z M 138.87891,173.52344 h -0.51563 c -1.37109,0 -2.48828,1.11328 -2.48828,2.48437 v 3.17578 c 0,0.25782 0.21484,0.47266 0.47266,0.47266 h 4.58984 c 0.25781,0 0.47266,-0.21484 0.47266,-0.47266 v -3.17578 c 0,-1.32812 -1.16016,-2.48437 -2.53125,-2.48437 z m 1.58593,5.23047 h -3.6875 v -2.70313 c 0,-0.85547 0.73047,-1.58594 1.58594,-1.58594 h 0.51563 c 0.85546,0 1.58593,0.73047 1.58593,1.58594 z m 122.48828,7.03515 h -0.38281 c -1.07422,0 -1.93359,0.85547 -1.93359,1.92969 v 5.27344 c 0,0.25781 0.21484,0.47265 0.47265,0.47265 h 3.30469 c 0.25781,0 0.46875,-0.21484 0.46875,-0.47265 v -5.27344 c 0,-1.07422 -0.85547,-1.92969 -1.92969,-1.92969 z m 1.03125,6.73047 H 261.625 v -4.80078 c 0,-0.55859 0.42969,-0.98828 0.98828,-0.98828 h 0.38281 c 0.5586,0 0.98828,0.42969 0.98828,0.98828 z M 148.14062,170.77734 v -5.40625 c 0,-1.32812 -1.07031,-2.4414 -2.4414,-2.4414 h -0.47266 c -1.33203,0 -2.44531,1.07031 -2.44531,2.4414 v 5.40625 c 0,0.25782 0.21484,0.47266 0.47266,0.47266 h 4.41796 c 0.25782,-0.043 0.46875,-0.21484 0.46875,-0.47266 z m -0.9414,-0.47265 h -3.51563 v -4.9336 c 0,-0.8125 0.6836,-1.5 1.5,-1.5 h 0.47266 c 0.8125,0 1.5,0.6875 1.5,1.5 z m 7.63281,-9.94922 h -0.21484 c -0.6836,0 -1.24219,0.55859 -1.24219,1.24219 v 1.80078 c 0,0.25781 0.21484,0.47265 0.47266,0.47265 h 1.75781 c 0.25781,0 0.47265,-0.21484 0.47265,-0.47265 v -1.80078 c 0,-0.6836 -0.55859,-1.24219 -1.24609,-1.24219 z m 0.34375,2.57422 h -0.85937 v -1.33203 c 0,-0.17188 0.1289,-0.34375 0.34375,-0.34375 h 0.21484 c 0.17187,0 0.34375,0.1289 0.34375,0.34375 v 1.33203 z m -1.15625,15.13672 h -0.38672 c -1.07422,0 -1.92969,0.85937 -1.92969,1.92968 v 5.27735 c 0,0.25781 0.21485,0.47265 0.47266,0.47265 h 3.30078 c 0.25781,0 0.47266,-0.21484 0.47266,-0.47265 v -5.27735 c 0,-1.07031 -0.85938,-1.92968 -1.92969,-1.92968 z m 1.02734,6.73437 h -2.35937 v -4.80469 c 0,-0.55468 0.42969,-0.98437 0.98828,-0.98437 h 0.38672 c 0.55469,0 0.98437,0.42969 0.98437,0.98437 z m -15.73828,-19.98437 h -0.47265 c -1.32813,0 -2.44532,1.07031 -2.44532,2.44531 v 3.51562 c 0,0.25782 0.21485,0.47266 0.47266,0.47266 h 4.41797 c 0.25781,0 0.47266,-0.21484 0.47266,-0.47266 v -3.51562 c -0.043,-1.33203 -1.11719,-2.44531 -2.44532,-2.44531 z m 1.5,5.48828 h -3.51562 v -3.04297 c 0,-0.81641 0.68359,-1.50391 1.5,-1.50391 h 0.47265 c 0.8125,0 1.5,0.6875 1.5,1.50391 z m 39.54297,-17.54297 v -0.98438 c 0,-0.42968 0.34375,-0.77343 0.77344,-0.77343 h 0.17187 c 0.42579,0 0.76954,0.34375 0.76954,0.77343 v 0.98438 c 0,0.17187 -0.12891,0.30078 -0.30079,0.30078 h -1.11328 c -0.17187,0 -0.30078,-0.12891 -0.30078,-0.30078 z m -5.875,-5.1875 v 0.94531 c 0,0.16797 -0.1289,0.29688 -0.30078,0.29688 h -0.38672 c -0.17187,0 -0.30078,-0.12891 -0.30078,-0.29688 v -0.94531 c 0,-0.17188 0.12891,-0.30078 0.30078,-0.30078 h 0.38672 c 0.17188,0 0.30078,0.1289 0.30078,0.30078 z m 0,3.98828 v 0.94531 c 0,0.17188 -0.1289,0.29688 -0.30078,0.29688 h -0.38672 c -0.17187,0 -0.30078,-0.125 -0.30078,-0.29688 v -0.94531 c 0,-0.17188 0.12891,-0.30078 0.30078,-0.30078 h 0.38672 c 0.17188,0 0.30078,0.1289 0.30078,0.30078 z m 9.08985,1.19922 v -0.98438 c 0,-0.42968 0.34375,-0.77343 0.77343,-0.77343 h 0.17188 c 0.42969,0 0.77344,0.34375 0.77344,0.77343 v 0.98438 c 0,0.17187 -0.12891,0.30078 -0.30079,0.30078 h -1.11718 c -0.17188,0 -0.30078,-0.12891 -0.30078,-0.30078 z m 3.73437,0 v -0.98438 c 0,-0.42968 0.33984,-0.77343 0.76953,-0.77343 h 0.17188 c 0.42968,0 0.77343,0.34375 0.77343,0.77343 v 0.98438 c 0,0.17187 -0.1289,0.30078 -0.30078,0.30078 h -1.11328 c -0.17187,0 -0.30078,-0.12891 -0.30078,-0.30078 z m -3.73437,-4.58594 v -0.98828 c 0,-0.42969 0.34375,-0.76953 0.77343,-0.76953 h 0.17188 c 0.42969,0 0.77344,0.33984 0.77344,0.76953 v 0.98828 c 0,0.17188 -0.12891,0.30078 -0.30079,0.30078 h -1.11718 c -0.17188,0 -0.30078,-0.1289 -0.30078,-0.30078 z m 40.3164,21.61328 V 165.5 c 0,-0.42578 0.34375,-0.76953 0.77344,-0.76953 h 0.17187 c 0.42579,0 0.76954,0.34375 0.76954,0.76953 v 4.28906 c 0,0.17188 -0.12891,0.30078 -0.30079,0.30078 h -1.11328 c -0.17187,0 -0.30078,-0.1289 -0.30078,-0.30078 z m 0,-8.32031 v -2.61328 c 0,-0.42969 0.34375,-0.77344 0.77344,-0.77344 h 0.17187 c 0.42579,0 0.76954,0.34375 0.76954,0.77344 v 2.61328 c 0,0.17187 -0.12891,0.30078 -0.30079,0.30078 h -1.11328 c -0.17187,0 -0.30078,-0.12891 -0.30078,-0.30078 z m -25.47656,-3.17188 h -0.8125 c -2.10156,0 -3.81641,1.71485 -3.81641,3.81641 v 7.50391 c 0,0.25781 0.21094,0.47265 0.46875,0.47265 h 7.50782 c 0.25781,0 0.47265,-0.21484 0.47265,-0.47265 v -7.50391 c -0.004,-2.10156 -1.71875,-3.81641 -3.82031,-3.81641 z m -2.44141,10.85157 h -1.24609 v -4.9336 h 1.24609 z m 0,-5.87891 h -1.24609 v -1.15625 c 0,-0.98828 0.51562,-1.84375 1.24609,-2.35937 z m 3.17188,5.87891 h -2.27344 v -4.9336 h 2.27344 z m 0,-5.87891 h -2.27344 v -3.94531 c 0.21484,-0.043 0.47266,-0.0859 0.6875,-0.0859 h 0.8125 c 0.25781,0 0.51563,0.043 0.73047,0.0859 z m 2.14453,5.87891 h -1.19922 v -4.9336 h 1.19922 z m 0,-5.87891 h -1.19922 v -3.51562 c 0.72656,0.51562 1.19922,1.37109 1.19922,2.35937 z m 18.61328,-0.29687 v -2.61719 c 0,-0.42969 0.34375,-0.77344 0.77344,-0.77344 h 0.17187 c 0.42578,0 0.76953,0.34375 0.76953,0.77344 v 2.61719 c 0,0.16796 -0.1289,0.29687 -0.30078,0.29687 h -1.11328 c -0.17187,0 -0.30078,-0.12891 -0.30078,-0.29687 z m -35.46875,-4.67579 h -0.81641 c -2.10156,0 -3.8164,1.71485 -3.8164,3.81641 v 7.50391 c 0,0.25781 0.21484,0.47265 0.47265,0.47265 h 7.50391 c 0.25781,0 0.47266,-0.21484 0.47266,-0.47265 v -7.50391 c 0,-2.10156 -1.71485,-3.81641 -3.81641,-3.81641 z m -2.44531,10.85157 h -1.24219 v -4.9336 h 1.24219 z m 0,-5.87891 h -1.24219 v -1.15625 c 0,-0.98828 0.51563,-1.84375 1.24219,-2.35937 z m 3.17578,5.87891 h -2.27344 v -4.9336 h 2.27344 z m 0,-5.87891 h -2.27344 v -3.94531 c 0.21485,-0.043 0.47266,-0.0859 0.6836,-0.0859 h 0.8164 c 0.25781,0 0.51563,0.043 0.73047,0.0859 v 3.94531 z m 2.14453,5.87891 h -1.20312 v -4.9336 h 1.20312 z m 0,-5.87891 h -1.20312 v -3.51562 c 0.73046,0.51562 1.20312,1.37109 1.20312,2.35937 z m 3.30078,-15.09375 v -3.34766 c 0,-0.42968 0.34375,-0.76953 0.77344,-0.76953 h 0.17187 c 0.42579,0 0.76954,0.33985 0.76954,0.76953 v 3.34766 c 0,0.17188 -0.12891,0.30078 -0.30079,0.30078 h -1.11328 c -0.17187,0 -0.30078,-0.1289 -0.30078,-0.30078 z m 16.8125,4.33203 v -0.94531 c 0,-0.17188 0.12891,-0.30078 0.30078,-0.30078 h 0.38672 c 0.17188,0 0.30078,0.1289 0.30078,0.30078 v 0.94531 c 0,0.17188 -0.1289,0.29688 -0.30078,0.29688 h -0.38672 c -0.17187,0 -0.30078,-0.125 -0.30078,-0.29688 z m -7.03515,0.25391 v -0.98438 c 0,-0.42968 0.34375,-0.77343 0.77343,-0.77343 h 0.17188 c 0.42969,0 0.77344,0.34375 0.77344,0.77343 v 0.98438 c 0,0.17187 -0.12891,0.30078 -0.30079,0.30078 h -1.11718 c -0.17188,0 -0.30078,-0.12891 -0.30078,-0.30078 z m -40.8711,5.79297 h -0.38672 c -1.07031,0 -1.92968,0.85547 -1.92968,1.92968 v 2.91407 c 0,0.25781 0.21484,0.47265 0.47265,0.47265 h 3.30078 c 0.25782,0 0.47266,-0.21484 0.47266,-0.47265 v -2.91407 c 0,-1.03125 -0.90234,-1.92968 -1.92969,-1.92968 z m 0.98828,4.375 h -2.35937 v -2.44532 c 0,-0.55859 0.42578,-0.98828 0.98437,-0.98828 h 0.38672 c 0.5586,0 0.98828,0.42969 0.98828,0.98828 z m 46.91797,-14.41016 v -0.94531 c 0,-0.17188 0.12891,-0.30078 0.30078,-0.30078 h 0.38672 c 0.17188,0 0.30078,0.1289 0.30078,0.30078 v 0.94531 c 0,0.16797 -0.1289,0.29688 -0.30078,0.29688 h -0.38672 c -0.17187,0 -0.30078,-0.12891 -0.30078,-0.29688 z m -20.11328,-0.34375 v -2.61719 c 0,-0.42968 0.33984,-0.77343 0.76953,-0.77343 h 0.17188 c 0.42968,0 0.77343,0.34375 0.77343,0.77343 v 2.61719 c 0,0.17188 -0.1289,0.30078 -0.30078,0.30078 h -1.11328 c -0.17187,0 -0.30078,-0.1289 -0.30078,-0.30078 z m 9.90625,0 v -0.98828 c 0,-0.42969 0.34375,-0.76953 0.77344,-0.76953 h 0.16797 c 0.42968,0 0.77343,0.33984 0.77343,0.76953 v 0.98828 c 0,0.17188 -0.1289,0.30078 -0.30078,0.30078 h -1.11328 c -0.17187,0 -0.30078,-0.1289 -0.30078,-0.30078 z m -6.60547,4.58594 v -0.98438 c 0,-0.42968 0.34375,-0.77343 0.77344,-0.77343 h 0.17187 c 0.42579,0 0.76954,0.34375 0.76954,0.77343 v 0.98438 c 0,0.17187 -0.12891,0.30078 -0.30079,0.30078 h -1.11328 c -0.17187,0 -0.30078,-0.12891 -0.30078,-0.30078 z m -31.09375,11.53906 h -0.38672 c -1.07031,0 -1.92968,0.85938 -1.92968,1.92969 v 2.91797 c 0,0.2539 0.21484,0.46875 0.47265,0.46875 h 3.30078 c 0.25782,0 0.47266,-0.21485 0.47266,-0.46875 v -2.91797 c 0,-1.07031 -0.90234,-1.92969 -1.92969,-1.92969 z m 0.98828,4.375 h -2.35937 v -2.44531 c 0,-0.5586 0.42578,-0.98828 0.98437,-0.98828 h 0.38672 c 0.5586,0 0.98828,0.42968 0.98828,0.98828 z m 33.66407,-15.91406 v -0.98438 c 0,-0.42968 0.34375,-0.77343 0.77343,-0.77343 h 0.17188 c 0.42969,0 0.77344,0.34375 0.77344,0.77343 v 0.98438 c 0,0.17187 -0.12891,0.30078 -0.30079,0.30078 h -1.11718 c -0.17188,0 -0.30078,-0.12891 -0.30078,-0.30078 z m 3.04687,0 v -0.98438 c 0,-0.42968 0.34375,-0.77343 0.77344,-0.77343 h 0.16797 c 0.42968,0 0.77343,0.34375 0.77343,0.77343 v 0.98438 c 0,0.17187 -0.1289,0.30078 -0.30078,0.30078 h -1.11328 c -0.17187,0 -0.30078,-0.12891 -0.30078,-0.30078 z m -3.04687,-4.58594 v -2.61719 c 0,-0.42968 0.34375,-0.77343 0.77343,-0.77343 h 0.17188 c 0.42969,0 0.77344,0.34375 0.77344,0.77343 v 2.61719 c 0,0.17188 -0.12891,0.30078 -0.30079,0.30078 h -1.11718 c -0.17188,0 -0.30078,-0.1289 -0.30078,-0.30078 z m 0,0"
         fill-opacity="1"
         fill-rule="nonzero"
         id="path3"
         style="fill:#f9f9f9" /></g><path
       fill="#000000"
       d="m 125.89453,269.77344 c 0.0352,-0.10157 0.11719,-0.14063 0.22266,-0.14063 0.27734,0.0117 0.54687,0 0.82422,0 0.0312,0 0.0586,0.0274 0.0586,0.0547 v 0.0117 c 0.008,0.0664 -0.0195,0.13281 -0.043,0.19531 -0.0625,0.12891 -0.10156,0.22266 -0.16797,0.37891 -1.47265,3.3164 -2.9375,6.63281 -4.41015,9.95312 -0.0352,0.0703 -0.10547,0.11719 -0.19141,0.11719 -0.28125,-0.004 -0.56641,0 -0.86328,0 -0.0469,0 -0.0742,-0.043 -0.0586,-0.0859 0.14062,-0.32812 0.28125,-0.64062 0.41406,-0.95312 0.33594,-0.76563 0.67969,-1.52735 1.01953,-2.29688 0.0469,-0.082 0.0469,-0.18359 0,-0.26562 -1.04688,-2.32032 -2.09766,-4.64453 -3.14844,-6.96485 -0.0117,-0.0195 -0.0195,-0.043 -0.0234,-0.0664 -0.0156,-0.0391 0.0117,-0.082 0.0586,-0.082 h 0.92578 c 0.0742,0 0.0898,0.0508 0.10937,0.0976 l 1.75,3.85547 0.87891,1.94141 c 0.0234,0.0508 0.0937,0.0508 0.11328,-0.004 z m 0,0"
       fill-opacity="1"
       fill-rule="nonzero"
       id="path4"
       style="fill:#f9f9f9" /><path
       fill="#000000"
       d="m 118.09766,277.46094 c -0.5,0 -0.96485,0 -1.42188,0 -0.0586,0 -0.0898,-0.0469 -0.125,-0.0742 l -3.80859,-3.36719 c -0.0234,-0.0195 -0.0508,-0.0391 -0.0977,-0.0781 v 0.18359 c 0,1.0625 0,2.125 0.004,3.19141 0,0.11718 -0.0352,0.14843 -0.15235,0.14453 -0.27343,0 -0.54296,0 -0.78906,0 -0.0781,0 -0.10937,-0.0274 -0.0977,-0.10157 0,-0.0234 0,-0.0469 0,-0.0742 0,-3.50391 0,-7.00782 -0.008,-10.51172 0,-0.14844 0.043,-0.1836 0.1836,-0.17578 0.23437,0 0.47656,0 0.71093,0 0.1211,-0.004 0.14844,0.0351 0.14844,0.14843 -0.008,1.57032 -0.008,3.14063 0,4.71485 v 1.30078 c 0.14844,-0.125 0.28125,-0.23438 0.40625,-0.33985 1.04297,-0.89843 2.08985,-1.78906 3.13281,-2.68359 0.0703,-0.0703 0.17188,-0.10547 0.27344,-0.10156 0.44531,0.008 0.89453,0 1.3711,0 -0.14454,0.125 -0.26563,0.23437 -0.38672,0.33984 -1.28125,1.08594 -2.5625,2.17578 -3.84766,3.26563 -0.10547,0.0898 -0.11328,0.13281 -0.008,0.22656 1.46875,1.29687 2.9414,2.60156 4.40234,3.90625 z m 0,0"
       fill-opacity="1"
       fill-rule="nonzero"
       id="path5"
       style="fill:#f9f9f9" /><path
       fill="#000000"
       d="m 104.91016,277.64453 c -1.625,0 -2.84766,-0.52734 -3.75,-1.69141 -0.62891,-0.80468 -0.85157,-1.72656 -0.76172,-2.73046 0.15234,-1.78907 1.52734,-3.41016 3.65234,-3.71875 1.16016,-0.16797 2.25781,0.0195 3.27735,0.60546 0.44531,0.26172 0.82421,0.625 1.10156,1.0586 0.0469,0.0742 0.0469,0.10937 -0.0352,0.16015 -0.21094,0.1211 -0.42187,0.25 -0.6289,0.38282 -0.082,0.0547 -0.11719,0.0312 -0.16797,-0.0312 -0.51953,-0.64844 -1.1875,-1.07422 -2.02344,-1.22266 -1.45703,-0.26562 -2.88672,0.16016 -3.71875,1.49219 -0.95703,1.53906 -0.30859,3.75 1.53516,4.49219 1.375,0.55468 3.10156,0.30468 4.19531,-1.01563 0.0625,-0.0781 0.0977,-0.0937 0.1875,-0.0352 0.19922,0.13672 0.40234,0.27344 0.60937,0.39454 0.0937,0.0547 0.0898,0.10156 0.0312,0.17968 -0.58984,0.79297 -1.3789,1.28125 -2.33203,1.52344 -0.38672,0.10156 -0.77734,0.15625 -1.17187,0.15625 z m 0,0"
       fill-opacity="1"
       fill-rule="nonzero"
       id="path6"
       style="fill:#f9f9f9" /><path
       fill="#000000"
       d="m 91.316406,275.27344 c 0.117188,0.082 0.507813,0.26562 0.628906,0.33984 0.296876,0.17969 0.296876,0.17969 0.539063,0.39063 0.199219,0.16406 0.308594,0.41796 0.285156,0.67968 -0.02734,0.17578 -0.06641,0.35157 -0.117187,0.52344 -0.05469,0.20313 -0.113282,0.40625 -0.08984,0.61719 0.05078,0.40625 0.328125,0.64062 0.683594,0.77344 0.84375,0.3164 1.714844,0.48437 2.617187,0.36328 0.496094,-0.0664 0.910157,-0.29297 1.171875,-0.73828 0.28125,-0.47266 0.535156,-0.96094 0.761719,-1.46094 0.07031,-0.14453 0.121094,-0.29688 0.152344,-0.44922 0.03516,-0.12891 -0.01563,-0.26953 -0.125,-0.34766 -0.136719,-0.0976 -0.261719,-0.21875 -0.375,-0.34765 0.15625,-0.008 0.289062,-0.008 0.421875,-0.0352 0.242187,-0.043 0.320312,-0.15625 0.257812,-0.39062 -0.140625,-0.5586 -0.01563,-1.03907 0.453125,-1.40625 0.121094,-0.0937 0.234375,-0.1875 0.355469,-0.27735 0.191406,-0.13281 0.367188,-0.28515 0.523438,-0.45312 0.214843,-0.24219 0.3125,-0.57422 0.25,-0.89063 -0.07031,-0.42578 -0.300782,-0.77734 -0.546876,-1.12109 -0.304687,-0.41797 -0.644531,-0.82422 -0.875,-1.29688 -0.335937,-0.68359 -0.367187,-1.33593 0.152344,-1.95703 0.410156,-0.49609 0.464844,-1.0625 0.246094,-1.64844 -0.363281,-0.95312 -0.914062,-1.78906 -1.589844,-2.55078 -0.117187,-0.13281 -0.265625,-0.24609 -0.429687,-0.32812 -0.117188,-0.0625 -0.246094,-0.0977 -0.378907,-0.0937 -0.203124,0 -0.402343,0.0859 -0.542968,0.23437 -0.132813,0.13672 -0.25,0.30078 -0.324219,0.48047 -0.167969,0.35156 -0.28125,0.72266 -0.351563,1.10938 -0.04687,0.22265 -0.175781,0.30078 -0.371093,0.35156 -0.265625,0.0664 -0.523438,0 -0.773438,-0.082 -0.34375,-0.10938 -0.664062,-0.26563 -1.011719,-0.35938 -0.425781,-0.12109 -0.847656,-0.12109 -1.171874,0.22657 -0.449219,0.48437 -0.640626,1.0625 -0.511719,1.72656 0.08203,0.40234 0.308593,0.73437 0.542969,1.05859 0.214843,0.30469 0.453124,0.58985 0.632812,0.91797 0.328125,0.58984 0.308594,1.40234 -0.226562,1.94531 -0.125,0.12891 -0.25,0.25782 -0.386719,0.37891 -0.367188,0.33984 -0.757813,0.64844 -1.089844,1.02734 -0.546875,0.60938 -0.683594,1.39844 -0.402344,2.06641 0.152344,0.35937 0.421875,0.64844 0.75,0.85937 z m 0.511719,-0.125 c -0.425781,-0.22266 -0.707031,-0.44922 -0.988281,-0.77344 -0.15625,-0.1875 -0.242188,-0.42188 -0.246094,-0.66406 -0.01953,-0.13282 -0.01953,-0.26563 0,-0.39844 0.03125,-0.36719 0.230469,-0.65625 0.46875,-0.92188 0.363281,-0.41406 0.816406,-0.74609 1.207031,-1.13281 0.324219,-0.30859 0.589844,-0.64453 0.695313,-1.08594 0.15625,-0.63281 0.02344,-1.21484 -0.332032,-1.75 -0.226562,-0.34375 -0.476562,-0.66796 -0.707031,-1.00781 -0.207031,-0.29687 -0.351562,-0.61719 -0.328125,-0.98828 0.02734,-0.33984 0.144532,-0.66797 0.355469,-0.94141 0.175781,-0.23046 0.425781,-0.27734 0.695313,-0.22265 0.390624,0.0859 0.75,0.26953 1.128906,0.38672 0.289062,0.0898 0.574218,0.17187 0.878906,0.10937 0.449219,-0.0937 0.726562,-0.22656 0.808594,-0.71484 0.06641,-0.38281 0.191406,-0.75391 0.375,-1.10156 0.07813,-0.14844 0.164062,-0.30079 0.351562,-0.34766 0.02344,-0.008 0.04297,-0.0156 0.07031,-0.0156 0.02734,0 0.05859,0.008 0.08984,0.0156 0.253907,0.0547 0.410157,0.23828 0.566407,0.42187 0.34375,0.39454 0.617187,0.83594 0.890625,1.28125 0.207031,0.34766 0.394531,0.69922 0.507812,1.08594 0.01953,0.0664 0.03516,0.14063 0.03906,0.21094 0.02344,0.13281 0.02344,0.26953 0,0.39844 0,0.13281 -0.06641,0.24609 -0.128907,0.35547 -0.15625,0.26562 -0.375,0.48828 -0.488281,0.78125 -0.05469,0.15234 -0.09766,0.3125 -0.117187,0.47656 -0.01563,0.0937 -0.01563,0.1914 -0.0039,0.28515 0.0039,0.0234 0.0039,0.0508 0.0078,0.0742 0.0625,0.60547 0.339844,1.11328 0.679688,1.60547 0.261718,0.3711 0.5625,0.72266 0.789062,1.11719 0.152344,0.25781 0.269531,0.53125 0.179688,0.83594 -0.07031,0.24218 -0.265626,0.39062 -0.457032,0.54687 -0.28125,0.22656 -0.589844,0.41406 -0.824218,0.70313 -0.195313,0.23437 -0.308594,0.52343 -0.339844,0.82812 -0.01953,0.10156 -0.01953,0.20313 0,0.30469 l 0.0039,0.043 c 0.01953,0.24219 0.01953,0.23828 -0.242188,0.25781 -0.164062,0.0117 -0.328124,0.0391 -0.40625,0.20703 -0.07422,0.16797 -0.0039,0.3086 0.101563,0.44141 0.08203,0.10547 0.175781,0.1914 0.28125,0.27344 0.125,0.082 0.140625,0.18359 0.08594,0.3164 -0.140624,0.33594 -0.3125,0.65625 -0.476562,0.98047 -0.09766,0.18359 -0.21875,0.35156 -0.308594,0.53516 -0.210937,0.41406 -0.582031,0.5625 -1.015625,0.60547 -0.730469,0.0703 -1.445312,-0.0742 -2.144531,-0.29688 -0.03906,-0.0117 -0.07422,-0.0273 -0.109375,-0.043 -0.445313,-0.19922 -0.515625,-0.35156 -0.402344,-0.82031 0.0625,-0.23438 0.136719,-0.46094 0.15625,-0.69922 0.03516,-0.42187 -0.128906,-0.73828 -0.417969,-1 -0.08594,-0.0781 -0.179687,-0.14453 -0.28125,-0.19922 z m 0,0"
       fill-opacity="1"
       fill-rule="nonzero"
       id="path7"
       style="fill:#f9f9f9" /><path
       fill="#000000"
       d="m 81.535156,277.70703 c -0.878906,-0.0234 -1.632812,-0.32812 -2.242187,-0.96875 -0.07422,-0.082 -0.09375,-0.12891 -0.0078,-0.21875 0.164063,-0.16797 0.320313,-0.34766 0.472656,-0.53125 0.06641,-0.0781 0.105469,-0.082 0.179688,-0.004 0.332031,0.35157 0.714844,0.63672 1.207031,0.73829 0.617188,0.12109 1.148438,-0.0312 1.554688,-0.51172 0.425781,-0.49219 0.359375,-1.23047 -0.144531,-1.64844 -0.0039,-0.004 -0.0078,-0.004 -0.01563,-0.008 -0.378906,-0.3125 -0.824218,-0.52735 -1.253906,-0.75391 -0.457031,-0.24219 -0.910156,-0.5 -1.242187,-0.89453 -0.527344,-0.62891 -0.621094,-1.34766 -0.339844,-2.09375 0.273437,-0.73438 0.847656,-1.14453 1.632813,-1.27344 0.835937,-0.13281 1.550781,0.16406 2.199218,0.65235 0.140625,0.10546 0.363282,0.21093 0.375,0.34765 0.01563,0.14063 -0.132812,0.26172 -0.25,0.39063 -0.08984,0.10156 -0.253906,0.24218 -0.367187,0.25781 -0.08594,0.0156 -0.199219,-0.14453 -0.300781,-0.22266 -0.339844,-0.26562 -0.714844,-0.46484 -1.15625,-0.51953 -0.613282,-0.0781 -1.226563,0.33203 -1.332032,0.92578 -0.07031,0.41016 0.121094,0.73828 0.417969,1.00391 0.296875,0.26953 0.648437,0.46094 1.003906,0.64453 0.398438,0.20313 0.78125,0.42969 1.140625,0.6875 1.324219,0.94531 1.132813,2.83984 -0.203125,3.64844 -0.410156,0.24219 -0.867187,0.36328 -1.328125,0.35156 z m 0,0"
       fill-opacity="1"
       fill-rule="nonzero"
       id="path8"
       style="fill:#f9f9f9" /><path
       fill="#000000"
       d="m 89.191406,277.36719 c 0,0.12109 -0.03125,0.15234 -0.15625,0.15234 -0.246094,0 -0.496094,0 -0.742187,0 -0.132813,0 -0.144531,-0.0391 -0.144531,-0.14844 0.0039,-2.20703 0,-4.42187 0.0039,-6.6289 0,-0.14453 -0.02734,-0.1875 -0.1875,-0.1875 -0.359375,0 -0.71875,0 -1.078125,0.004 -0.08984,0 -0.136719,-0.008 -0.125,-0.11718 0,-0.21875 0,-0.4336 0,-0.64454 -0.0078,-0.0976 0.02734,-0.11328 0.121093,-0.11328 0.375,0.004 0.746094,0 1.125,0.004 0.113282,0 0.148438,-0.0234 0.148438,-0.14453 -0.0039,-0.875 0,-1.7461 -0.0039,-2.6211 0,-0.11328 0.02344,-0.15625 0.148437,-0.14843 0.257813,0 0.519531,0 0.777344,0 0.105469,0 0.125,0.0273 0.125,0.12109 -0.0078,0.87891 0,1.75 -0.0078,2.625 0,0.14453 0.04688,0.16797 0.175782,0.16406 0.445312,-0.0117 0.886718,0 1.328125,-0.004 0.101562,0 0.125,0.0234 0.125,0.12109 0,0.20703 0,0.41797 0,0.62891 0.0039,0.10156 -0.03125,0.125 -0.125,0.125 -0.453125,-0.004 -0.90625,0 -1.355469,-0.004 -0.113281,0 -0.140625,0.0117 -0.140625,0.13672 z m 0,0"
       fill-opacity="1"
       fill-rule="nonzero"
       id="path9"
       style="fill:#f9f9f9" /><path
       fill="#000000"
       d="m 95.570312,265.94141 c -0.105468,0 -0.152343,0.0351 -0.167968,0.14453 -0.04297,0.26562 -0.08594,0.52734 -0.125,0.79687 -0.101563,0.59766 -0.199219,1.19531 -0.292969,1.79688 -0.105469,0.65234 -0.210937,1.30468 -0.316406,1.95703 -0.117188,0.73047 -0.234375,1.45312 -0.355469,2.17969 -0.08203,0.49609 -0.15625,0.98828 -0.253906,1.48437 -0.01563,0.0937 -0.01953,0.15234 0.06641,0.19922 0.300781,0 0.589844,0 0.882812,0 0.246094,0 0.488282,0 0.730469,0 0.05469,-0.0352 0.08594,-0.0898 0.08594,-0.15234 0.113281,-0.71094 0.226562,-1.41797 0.339843,-2.1211 0.105469,-0.65625 0.21875,-1.32031 0.324219,-1.97265 0.105469,-0.65625 0.210938,-1.3086 0.320313,-1.96094 0.113281,-0.71875 0.230468,-1.44141 0.347656,-2.16406 0.02344,-0.13672 -0.0078,-0.1836 -0.152344,-0.1836 h -1.433594 z m 0,0"
       fill-opacity="1"
       fill-rule="nonzero"
       id="path10"
       style="fill:#f9f9f9" /><path
       fill="#000000"
       d="m 94.769531,274.95312 c -0.195312,0 -0.386719,0.0352 -0.570312,0.10547 -0.410157,0.16797 -0.691407,0.45703 -0.777344,0.90235 -0.01953,0.0859 -0.01953,0.18359 0,0.26953 0.0039,0.043 0.01172,0.082 0.01953,0.11719 0.144532,0.50781 0.589844,0.83984 1.203125,0.90234 0.07031,0.008 0.140625,0.008 0.210938,0 0.660156,-0.0664 1.113281,-0.44531 1.21875,-1.02344 0.01172,-0.0898 0.0039,-0.16406 0,-0.23828 -0.02344,-0.20703 -0.117188,-0.40625 -0.257813,-0.5625 -0.265625,-0.29687 -0.644531,-0.46484 -1.046874,-0.47266 z m 0,0"
       fill-opacity="1"
       fill-rule="nonzero"
       id="path11"
       style="fill:#f9f9f9" /><g
       fill="#2b2b2b"
       fill-opacity="1"
       id="g14"
       style="fill:#f9f9f9"><g
         transform="translate(80.071959,255.9284)"
         id="g13"
         style="fill:#f9f9f9"><g
           id="g12"
           style="fill:#f9f9f9"><path
             d="M 0.4375,0 C 1.019531,-0.582031 1.421875,-1.269531 1.640625,-2.0625 1.859375,-2.863281 1.96875,-3.894531 1.96875,-5.15625 v -33.328125 c 0,-1.257813 -0.109375,-2.285156 -0.328125,-3.078125 -0.21875,-0.800781 -0.621094,-1.492188 -1.203125,-2.078125 h 14.625 c -0.585938,0.585937 -0.984375,1.277344 -1.203125,2.078125 -0.21875,0.792969 -0.328125,1.820312 -0.328125,3.078125 V -5.15625 c 0,1.261719 0.109375,2.292969 0.328125,3.09375 0.21875,0.792969 0.617187,1.480469 1.203125,2.0625 z m 0,0"
             id="path12"
             style="fill:#f9f9f9" /></g></g></g><g
       fill="#2b2b2b"
       fill-opacity="1"
       id="g17"
       style="fill:#f9f9f9"><g
         transform="translate(91.505168,255.9284)"
         id="g16"
         style="fill:#f9f9f9"><g
           id="g15"
           style="fill:#f9f9f9"><path
             d="M 13.921875,0.65625 C 12.085938,0.65625 10.363281,0.378906 8.75,-0.171875 7.132812,-0.722656 5.703125,-1.460938 4.453125,-2.390625 3.203125,-3.328125 2.21875,-4.398438 1.5,-5.609375 0.789062,-6.816406 0.4375,-8.070312 0.4375,-9.375 c 0,-0.53125 0.28125,-1.109375 0.84375,-1.734375 0.570312,-0.625 1.304688,-1.238281 2.203125,-1.84375 0.90625,-0.613281 1.84375,-1.164063 2.8125,-1.65625 0.976563,-0.5 1.890625,-0.898437 2.734375,-1.203125 0.84375,-0.3125 1.5,-0.453125 1.96875,-0.421875 0.664062,0.03125 1.226562,0.261719 1.6875,0.6875 0.46875,0.417969 0.644531,1.046875 0.53125,1.890625 -0.148438,1.136719 -0.261719,2.339844 -0.34375,3.609375 -0.08594,1.261719 0.0039,2.445313 0.265625,3.546875 0.257813,1.105469 0.816406,2.007812 1.671875,2.703125 0.863281,0.699219 2.140625,1.046875 3.828125,1.046875 1.132813,0 2.179687,-0.253906 3.140625,-0.765625 C 22.738281,-4.023438 23.515625,-4.726562 24.109375,-5.625 24.703125,-6.53125 25,-7.535156 25,-8.640625 c 0,-1.476563 -0.386719,-2.71875 -1.15625,-3.71875 -0.773438,-1.007813 -1.777344,-1.847656 -3.015625,-2.515625 -1.230469,-0.675781 -2.574219,-1.234375 -4.03125,-1.671875 -2.148437,-0.664063 -4.1875,-1.367187 -6.125,-2.109375 -1.9375,-0.738281 -3.652344,-1.628906 -5.140625,-2.671875 -1.480469,-1.050781 -2.652344,-2.351563 -3.515625,-3.90625 -0.855469,-1.5625 -1.28125,-3.492187 -1.28125,-5.796875 0,-1.832031 0.351563,-3.546875 1.0625,-5.140625 0.71875,-1.601563 1.695313,-3.015625 2.9375,-4.234375 1.238281,-1.226562 2.671875,-2.179688 4.296875,-2.859375 1.632812,-0.6875 3.367188,-1.03125 5.203125,-1.03125 1.125,0 2.203125,0.148437 3.234375,0.4375 1.039062,0.292969 2.097656,0.585937 3.171875,0.875 1.070313,0.292969 2.28125,0.4375 3.625,0.4375 1.019531,0 1.828125,-0.144531 2.421875,-0.4375 0.59375,-0.289063 1.097656,-0.582031 1.515625,-0.875 0.425781,-0.289063 0.859375,-0.4375 1.296875,-0.4375 0.519531,0 0.84375,0.292969 0.96875,0.875 0.132812,0.585937 0.113281,1.335937 -0.0625,2.25 -0.167969,0.917969 -0.464844,1.890625 -0.890625,2.921875 -0.417969,1.03125 -0.949219,2.007812 -1.59375,2.921875 -0.636719,0.917969 -1.351563,1.667969 -2.140625,2.25 -0.78125,0.585937 -1.621094,0.875 -2.515625,0.875 -1.605469,0 -3.085937,-0.257813 -4.4375,-0.78125 -1.355469,-0.53125 -2.65625,-1.144531 -3.90625,-1.84375 -1.25,-0.695313 -2.523437,-1.304687 -3.8125,-1.828125 -1.292969,-0.519531 -2.667969,-0.78125 -4.125,-0.78125 -0.8125,0 -1.507813,0.296875 -2.078125,0.890625 -0.5625,0.59375 -0.84375,1.3125 -0.84375,2.15625 0,1.167969 0.457031,2.121094 1.375,2.859375 0.914062,0.742188 2.109375,1.328125 3.578125,1.765625 1.46875,0.4375 3.066406,0.777344 4.796875,1.015625 1.726562,0.230469 3.421875,0.417969 5.078125,0.5625 2.445313,0.230469 4.59375,0.890625 6.4375,1.984375 1.851563,1.09375 3.296875,2.523437 4.328125,4.28125 1.03125,1.75 1.546875,3.75 1.546875,6 0,1.949219 -0.335937,3.898437 -1,5.84375 -0.667969,1.949219 -1.695313,3.730469 -3.078125,5.34375 -1.386719,1.617187 -3.171875,2.917969 -5.359375,3.90625 -2.179687,0.988281 -4.792969,1.484375 -7.84375,1.484375 z m 0,0"
             id="path14"
             style="fill:#f9f9f9" /></g></g></g><g
       fill="#2b2b2b"
       fill-opacity="1"
       id="g20"
       style="fill:#f9f9f9"><g
         transform="translate(119.74002,255.9284)"
         id="g19"
         style="fill:#f9f9f9"><g
           id="g18"
           style="fill:#f9f9f9"><path
             d="m 1.828125,-26.671875 c -0.292969,0 -0.527344,-0.09766 -0.703125,-0.296875 -0.167969,-0.207031 -0.25,-0.457031 -0.25,-0.75 v -15.921875 h 33.90625 v 15.921875 c 0,0.292969 -0.08594,0.542969 -0.25,0.75 -0.15625,0.199219 -0.390625,0.296875 -0.703125,0.296875 -0.355469,0 -0.761719,-0.351563 -1.21875,-1.0625 -0.449219,-0.707031 -0.929687,-1.617187 -1.4375,-2.734375 -0.5,-1.125 -1.023437,-2.316406 -1.5625,-3.578125 -0.542969,-1.269531 -1.085937,-2.460937 -1.625,-3.578125 -0.53125,-1.125 -1.054687,-2.039062 -1.5625,-2.75 -0.511719,-0.71875 -0.996094,-1.078125 -1.453125,-1.078125 -0.648438,0 -1.039062,0.296875 -1.171875,0.890625 -0.125,0.59375 -0.1875,1.226562 -0.1875,1.890625 V -5.15625 c 0,1.261719 0.109375,2.292969 0.328125,3.09375 0.21875,0.792969 0.617188,1.480469 1.203125,2.0625 h -14.625 C 11.097656,-0.582031 11.5,-1.269531 11.71875,-2.0625 c 0.21875,-0.800781 0.328125,-1.832031 0.328125,-3.09375 v -33.515625 c 0,-0.664063 -0.07031,-1.296875 -0.203125,-1.890625 -0.125,-0.59375 -0.511719,-0.890625 -1.15625,-0.890625 -0.460938,0 -0.945312,0.359375 -1.453125,1.078125 -0.511719,0.710938 -1.039063,1.625 -1.578125,2.75 -0.53125,1.117188 -1.070312,2.308594 -1.609375,3.578125 -0.542969,1.261719 -1.070313,2.453125 -1.578125,3.578125 -0.511719,1.117188 -0.984375,2.027344 -1.421875,2.734375 -0.429687,0.710937 -0.835937,1.0625 -1.21875,1.0625 z m 0,0"
             id="path17"
             style="fill:#f9f9f9" /></g></g></g><g
       fill="#2b2b2b"
       fill-opacity="1"
       id="g23"
       style="fill:#f9f9f9"><g
         transform="translate(151.33519,255.9284)"
         id="g22"
         style="fill:#f9f9f9"><g
           id="g21"
           style="fill:#f9f9f9"><path
             d="m 0,0 c 0.90625,-0.757812 1.632812,-1.910156 2.1875,-3.453125 0.550781,-1.539063 1.101562,-3.210937 1.65625,-5.015625 0.875,-2.96875 1.632812,-5.671875 2.28125,-8.109375 0.65625,-2.445313 1.238281,-4.828125 1.75,-7.140625 0.507812,-2.3125 1.003906,-4.71875 1.484375,-7.21875 0.476563,-2.5 0.992187,-5.265625 1.546875,-8.296875 0.144531,-0.84375 0.144531,-1.671875 0,-2.484375 -0.148438,-0.8125 -0.464844,-1.453125 -0.953125,-1.921875 H 29.28125 c -0.46875,0.46875 -0.78125,1.109375 -0.9375,1.921875 -0.15625,0.8125 -0.164062,1.640625 -0.01563,2.484375 0.550781,3.03125 1.066406,5.796875 1.546875,8.296875 0.476562,2.5 0.972656,4.90625 1.484375,7.21875 0.507813,2.3125 1.085937,4.695312 1.734375,7.140625 0.65625,2.4375 1.421875,5.140625 2.296875,8.109375 0.550781,1.804688 1.101563,3.476562 1.65625,5.015625 0.550781,1.542969 1.28125,2.695313 2.1875,3.453125 H 21.20312 c 0.5,-0.582031 0.882813,-1.296875 1.15625,-2.140625 0.28125,-0.84375 0.421875,-1.710937 0.421875,-2.609375 0,-0.726562 -0.132812,-2.082031 -0.390625,-4.0625 -0.261719,-1.976562 -0.609375,-4.207031 -1.046875,-6.6875 H 14.92187 c 0.757813,1.835938 1.453125,3.65625 2.078125,5.46875 0.625,1.804688 0.9375,3.605469 0.9375,5.40625 0,0.667969 -0.08984,1.367188 -0.265625,2.09375 -0.179687,0.730469 -0.492187,1.335938 -0.9375,1.8125 C 16.285156,-0.238281 15.625,0 14.75,0 Z m 14.09375,-17.453125 h 6.859375 c -0.40625,-2.09375 -0.859375,-4.179687 -1.359375,-6.265625 -0.492188,-2.082031 -1.023438,-3.976562 -1.59375,-5.6875 -0.5625,-1.71875 -1.148438,-3.09375 -1.75,-4.125 -0.59375,-1.039062 -1.199219,-1.5625 -1.8125,-1.5625 -0.75,0 -1.34375,0.324219 -1.78125,0.96875 -0.4375,0.636719 -0.75,1.476562 -0.9375,2.515625 -0.1875,1.03125 -0.28125,2.125 -0.28125,3.28125 0,1.929687 0.265625,3.792969 0.796875,5.59375 0.539063,1.804687 1.160156,3.5625 1.859375,5.28125 z m 0,0"
             id="path20"
             style="fill:#f9f9f9" /></g></g></g><g
       fill="#2b2b2b"
       fill-opacity="1"
       id="g26"
       style="fill:#f9f9f9"><g
         transform="translate(186.50889,255.9284)"
         id="g25"
         style="fill:#f9f9f9"><g
           id="g24"
           style="fill:#f9f9f9"><path
             d="M 0.4375,0 C 1.019531,-0.582031 1.421875,-1.269531 1.640625,-2.0625 1.859375,-2.863281 1.96875,-3.894531 1.96875,-5.15625 v -33.328125 c 0,-1.257813 -0.109375,-2.285156 -0.328125,-3.078125 -0.21875,-0.800781 -0.621094,-1.492188 -1.203125,-2.078125 h 13 c 0.757812,0 1.414062,0.140625 1.96875,0.421875 0.550781,0.273438 1.085938,0.851562 1.609375,1.734375 0.53125,0.886719 1.117187,2.199219 1.765625,3.9375 0.65625,1.730469 1.476562,4.0625 2.46875,7 l 4.109375,12.21875 c 0.40625,1.1875 0.800781,2.375 1.1875,3.5625 0.394531,1.179687 0.789063,2.257813 1.1875,3.234375 0.394531,0.96875 0.796875,1.746094 1.203125,2.328125 0.40625,0.585937 0.796875,0.875 1.171875,0.875 0.5,0 0.859375,-0.253906 1.078125,-0.765625 0.21875,-0.507812 0.363281,-1.132812 0.4375,-1.875 0.07031,-0.75 0.109375,-1.457031 0.109375,-2.125 0,-2.789062 -0.339844,-5.304688 -1.015625,-7.546875 -0.667969,-2.238281 -1.492188,-4.265625 -2.46875,-6.078125 -0.96875,-1.820312 -1.949219,-3.484375 -2.9375,-4.984375 -0.992188,-1.5 -1.824219,-2.910156 -2.5,-4.234375 -0.667969,-1.320312 -1,-2.609375 -1,-3.859375 0,-1.34375 0.488281,-2.316406 1.46875,-2.921875 0.976562,-0.613281 2.109375,-0.921875 3.390625,-0.921875 h 9.109375 c -0.585938,0.585937 -0.984375,1.277344 -1.203125,2.078125 -0.210937,0.792969 -0.3125,1.820312 -0.3125,3.078125 V -5.15625 c 0,1.261719 0.101563,2.292969 0.3125,3.09375 0.21875,0.792969 0.617187,1.480469 1.203125,2.0625 h -11.4375 c -1.25,0 -2.328125,-0.3125 -3.234375,-0.9375 -0.898437,-0.625 -1.65625,-1.472656 -2.28125,-2.546875 -0.625,-1.082031 -1.1875,-2.300781 -1.6875,-3.65625 -0.492187,-1.351563 -0.980469,-2.769531 -1.46875,-4.25 -0.292969,-0.875 -0.65625,-1.941406 -1.09375,-3.203125 -0.4375,-1.269531 -0.898437,-2.59375 -1.375,-3.96875 -0.480469,-1.382812 -0.933594,-2.671875 -1.359375,-3.859375 -0.417969,-1.195313 -0.746094,-2.160156 -0.984375,-2.890625 C 10.453125,-26.5 10.050781,-27.679688 9.65625,-28.859375 9.269531,-30.046875 8.878906,-31.125 8.484375,-32.09375 8.097656,-33.070312 7.707031,-33.851562 7.3125,-34.4375 c -0.398438,-0.582031 -0.796875,-0.875 -1.203125,-0.875 -0.46875,0 -0.820313,0.257812 -1.046875,0.765625 -0.230469,0.511719 -0.382812,1.140625 -0.453125,1.890625 C 4.535156,-31.914062 4.5,-31.210938 4.5,-30.546875 c 0,2.792969 0.332031,5.308594 1,7.546875 0.664062,2.242188 1.492188,4.273438 2.484375,6.09375 0.988281,1.8125 1.96875,3.46875 2.9375,4.96875 0.976563,1.5 1.800781,2.914062 2.46875,4.234375 0.675781,1.324219 1.015625,2.609375 1.015625,3.859375 0,1.34375 -0.492188,2.324219 -1.46875,2.9375 C 11.96875,-0.300781 10.84375,0 9.5625,0 Z m 0,0"
             id="path23"
             style="fill:#f9f9f9" /></g></g></g><g
       fill="#2b2b2b"
       fill-opacity="1"
       id="g29"
       style="fill:#f9f9f9"><g
         transform="translate(218.67139,255.9284)"
         id="g28"
         style="fill:#f9f9f9"><g
           id="g27"
           style="fill:#f9f9f9"><path
             d="m 1.96875,-38.484375 c 0,-1.257813 -0.109375,-2.285156 -0.328125,-3.078125 -0.21875,-0.800781 -0.621094,-1.492188 -1.203125,-2.078125 h 18.765625 c 2.820313,0 5.140625,0.515625 6.953125,1.546875 1.820312,1.03125 3.175781,2.371094 4.0625,4.015625 0.882812,1.648437 1.328125,3.402344 1.328125,5.265625 0,1.21875 -0.257813,2.480469 -0.765625,3.78125 -0.5,1.292969 -1.261719,2.484375 -2.28125,3.578125 -1.023438,1.085937 -2.289062,1.964844 -3.796875,2.640625 -1.511719,0.667969 -3.273437,1 -5.28125,1 -1.605469,0 -3.171875,-0.160156 -4.703125,-0.484375 -1.523438,-0.320313 -2.90625,-0.632813 -4.15625,-0.9375 -1.25,-0.3125 -2.28125,-0.46875 -3.09375,-0.46875 -0.292969,0 -0.539062,0.0625 -0.734375,0.1875 -0.1875,0.117187 -0.28125,0.289063 -0.28125,0.515625 0,0.4375 0.425781,0.8125 1.28125,1.125 0.863281,0.304688 1.960937,0.546875 3.296875,0.734375 1.34375,0.1875 2.734375,0.351563 4.171875,0.484375 1.445313,0.125 2.75,0.246094 3.90625,0.359375 4.457031,0.4375 7.71875,1.59375 9.78125,3.46875 2.0625,1.875 3.09375,4.3125 3.09375,7.3125 0,1.71875 -0.476563,3.296875 -1.421875,4.734375 C 29.625,-3.34375 28.351562,-2.1875 26.75,-1.3125 25.144531,-0.4375 23.34375,0 21.34375,0 H 0.4375 C 1.019531,-0.582031 1.421875,-1.269531 1.640625,-2.0625 1.859375,-2.863281 1.96875,-3.894531 1.96875,-5.15625 Z m 14.046875,3.578125 c -1.480469,0 -2.929687,0.152344 -4.34375,0.453125 -1.40625,0.304687 -2.667969,0.742187 -3.78125,1.3125 -1.105469,0.5625 -1.984375,1.21875 -2.640625,1.96875 -0.648438,0.742187 -0.96875,1.542969 -0.96875,2.40625 0,0.992187 0.445312,1.757813 1.34375,2.296875 0.90625,0.542969 1.953125,0.8125 3.140625,0.8125 2.507813,0 4.644531,-0.316406 6.40625,-0.953125 1.757813,-0.644531 3.101563,-1.429687 4.03125,-2.359375 0.925781,-0.9375 1.390625,-1.84375 1.390625,-2.71875 0,-0.875 -0.398438,-1.628906 -1.1875,-2.265625 -0.78125,-0.632813 -1.914062,-0.953125 -3.390625,-0.953125 z M 4.84375,-20.296875 c -0.210938,0 -0.351562,0.05469 -0.421875,0.15625 -0.0625,0.105469 -0.09375,0.214844 -0.09375,0.328125 0,0.261719 0.171875,0.640625 0.515625,1.140625 0.351562,0.492187 0.773438,1.011719 1.265625,1.5625 0.5,0.554687 0.9375,1.0625 1.3125,1.53125 0.8125,0.929687 1.71875,1.9375 2.71875,3.03125 1.007813,1.09375 2.128906,2.027344 3.359375,2.796875 1.238281,0.773438 2.554688,1.15625 3.953125,1.15625 0.875,0 1.566406,-0.164062 2.078125,-0.5 0.507812,-0.332031 0.875,-0.738281 1.09375,-1.21875 0.21875,-0.488281 0.328125,-0.953125 0.328125,-1.390625 0,-1.070313 -0.632813,-2.160156 -1.890625,-3.265625 -1.25,-1.101562 -3.492188,-2.148438 -6.71875,-3.140625 -2.324219,-0.726563 -4.015625,-1.273437 -5.078125,-1.640625 -1.0625,-0.363281 -1.871094,-0.546875 -2.421875,-0.546875 z m 0,0"
             id="path26"
             style="fill:#f9f9f9" /></g></g></g><g
       fill="#2b2b2b"
       fill-opacity="1"
       id="g32"
       style="fill:#f9f9f9"><g
         transform="translate(247.47356,255.9284)"
         id="g31"
         style="fill:#f9f9f9"><g
           id="g30"
           style="fill:#f9f9f9"><path
             d="m 2.265625,-38.484375 c 0,-1.257813 -0.117187,-2.285156 -0.34375,-3.078125 -0.230469,-0.800781 -0.726563,-1.492188 -1.484375,-2.078125 h 13 c 0.613281,0 1.125,0.203125 1.53125,0.609375 0.40625,0.40625 0.71875,0.902344 0.9375,1.484375 0.21875,0.585937 0.328125,1.152344 0.328125,1.703125 0,1.605469 -0.289063,3.105469 -0.859375,4.5 -0.5625,1.398438 -1.296875,2.71875 -2.203125,3.96875 -0.898437,1.25 -1.851563,2.464844 -2.859375,3.640625 -1,1.179687 -1.953125,2.355469 -2.859375,3.53125 -0.898437,1.179687 -1.632813,2.402344 -2.203125,3.671875 -0.5625,1.261719 -0.84375,2.605469 -0.84375,4.03125 0,1.398438 0.3125,2.578125 0.9375,3.546875 0.625,0.960937 1.4375,1.734375 2.4375,2.328125 1.007812,0.59375 2.101562,1.03125 3.28125,1.3125 1.175781,0.273438 2.316406,0.40625 3.421875,0.40625 1.457031,0 2.78125,-0.3125 3.96875,-0.9375 1.195313,-0.625 2.148437,-1.539062 2.859375,-2.75 0.71875,-1.207031 1.078125,-2.695312 1.078125,-4.46875 v -21.421875 c 0,-1.257813 -0.121094,-2.285156 -0.359375,-3.078125 -0.230469,-0.800781 -0.71875,-1.492188 -1.46875,-2.078125 h 15 c -0.730469,0.585937 -1.21875,1.277344 -1.46875,2.078125 -0.242188,0.792969 -0.359375,1.820312 -0.359375,3.078125 v 22.375 c 0,2.679687 -0.335937,4.980469 -1,6.90625 C 32.066406,-7.285156 31.164062,-5.6875 30.03125,-4.40625 28.894531,-3.125 27.632812,-2.113281 26.25,-1.375 24.863281,-0.632812 23.453125,-0.113281 22.015625,0.1875 20.578125,0.5 19.21875,0.65625 17.9375,0.65625 16.65625,0.65625 15.300781,0.5 13.875,0.1875 12.445312,-0.113281 11.050781,-0.632812 9.6875,-1.375 8.320312,-2.113281 7.078125,-3.125 5.953125,-4.40625 4.835938,-5.6875 3.941406,-7.285156 3.265625,-9.203125 c -0.667969,-1.925781 -1,-4.226563 -1,-6.90625 z m 0,0"
             id="path29"
             style="fill:#f9f9f9" /></g></g></g><g
       fill="#2b2b2b"
       fill-opacity="1"
       id="g35"
       style="fill:#f9f9f9"><g
         transform="translate(279.41786,255.9284)"
         id="g34"
         style="fill:#f9f9f9"><g
           id="g33"
           style="fill:#f9f9f9"><path
             d="M 23.703125,0 H 0.4375 C 1.019531,-0.582031 1.421875,-1.269531 1.640625,-2.0625 1.859375,-2.863281 1.96875,-3.894531 1.96875,-5.15625 v -33.328125 c 0,-1.257813 -0.109375,-2.285156 -0.328125,-3.078125 -0.21875,-0.800781 -0.621094,-1.492188 -1.203125,-2.078125 h 13.390625 c 1.195313,0 2.125,0.203125 2.78125,0.609375 0.65625,0.40625 1.113281,0.914062 1.375,1.515625 0.257813,0.59375 0.390625,1.183594 0.390625,1.765625 0,1.074219 -0.308594,2.171875 -0.921875,3.296875 -0.605469,1.117187 -1.390625,2.261719 -2.359375,3.4375 -0.960938,1.179687 -1.976562,2.40625 -3.046875,3.6875 -1.074219,1.28125 -2.09375,2.621094 -3.0625,4.015625 -0.960937,1.398438 -1.746094,2.859375 -2.359375,4.390625 -0.605469,1.523437 -0.90625,3.125 -0.90625,4.8125 0,0.96875 0.148438,2.058594 0.453125,3.265625 0.3125,1.199219 0.765625,2.429688 1.359375,3.6875 0.59375,1.25 1.335938,2.40625 2.234375,3.46875 0.90625,1.054688 1.960937,1.902344 3.171875,2.546875 1.207031,0.636719 2.550781,0.953125 4.03125,0.953125 0.9375,0 1.835938,-0.148438 2.703125,-0.453125 0.875,-0.300781 1.59375,-0.757813 2.15625,-1.375 0.570313,-0.613281 0.859375,-1.367187 0.859375,-2.265625 0,-1.164062 -0.25,-2.160156 -0.75,-2.984375 -0.492188,-0.832031 -1.101562,-1.597656 -1.828125,-2.296875 -0.71875,-0.695312 -1.453125,-1.429688 -2.203125,-2.203125 -0.742188,-0.769531 -1.359375,-1.671875 -1.859375,-2.703125 -0.492187,-1.039062 -0.734375,-2.316406 -0.734375,-3.828125 0,-1.101563 0.269531,-2.132813 0.8125,-3.09375 0.539062,-0.957031 1.257812,-1.734375 2.15625,-2.328125 0.90625,-0.601562 1.910156,-0.90625 3.015625,-0.90625 0.695313,0 1.597656,0.136719 2.703125,0.40625 1.101562,0.261719 2.207031,0.609375 3.3125,1.046875 1.113281,0.429687 2.046875,0.933594 2.796875,1.515625 0.757813,0.585938 1.140625,1.199219 1.140625,1.84375 0,0.835938 -0.234375,1.5 -0.703125,2 -0.46875,0.492188 -1.070313,0.890625 -1.796875,1.203125 -0.71875,0.304687 -1.480469,0.578125 -2.28125,0.828125 -0.804688,0.25 -1.570312,0.515625 -2.296875,0.796875 -0.730469,0.273437 -1.328125,0.640625 -1.796875,1.109375 -0.460938,0.460938 -0.6875,1.078125 -0.6875,1.859375 0,0.648437 0.238281,1.203125 0.71875,1.671875 0.476562,0.460938 1.085938,0.886719 1.828125,1.28125 0.75,0.398438 1.546875,0.808594 2.390625,1.234375 0.84375,0.417969 1.632812,0.902344 2.375,1.453125 0.738281,0.554688 1.347656,1.214844 1.828125,1.984375 0.476563,0.773437 0.71875,1.710937 0.71875,2.8125 0,0.992187 -0.242187,1.742187 -0.71875,2.25 -0.480469,0.511719 -1.117187,0.855469 -1.90625,1.03125 -0.78125,0.167969 -1.632813,0.2617188 -2.546875,0.28125 C 25.457031,-0.00390625 24.566406,0 23.703125,0 Z m 0,0"
             id="path32"
             style="fill:#f9f9f9" /></g></g></g><g
       fill="#2b2b2b"
       fill-opacity="1"
       id="g38"
       style="fill:#f9f9f9"><g
         transform="translate(261.04773,275.67432)"
         id="g37"
         style="fill:#f9f9f9"><g
           id="g36"
           style="fill:#f9f9f9"><path
             d="m 11.234375,-0.40625 c 0.01953,0.03125 0.03516,0.070312 0.04687,0.109375 0.0078,0.03125 0.0078,0.0625 0,0.09375 C 11.269531,-0.0976562 11.207031,-0.03125 11.09375,0 10.988281,0.0390625 10.882812,0.0546875 10.78125,0.046875 9.25,0.00390625 7.710938,-0.015625 6.171875,-0.015625 c -1.542969,0 -3.078125,0.01953125 -4.609375,0.0625 -0.105469,0 -0.214844,-0.0117188 -0.328125,-0.03125 -0.105469,-0.01953125 -0.167969,-0.09375 -0.1875,-0.21875 0,-0.019531 0.00781,-0.046875 0.03125,-0.078125 0.019531,-0.039062 0.035156,-0.082031 0.046875,-0.125 -0.011719,-0.0625 -0.023438,-0.117188 -0.03125,-0.171875 0,-0.050781 0.015625,-0.117187 0.046875,-0.203125 0,-0.007812 0,-0.015625 0,-0.015625 0.00781,0 0.015625,-0.003906 0.015625,-0.015625 0,0.03125 0,0.070312 0,0.109375 0.00781,0.042969 0.015625,0.101563 0.015625,0.171875 v 0.015625 c 0,-0.007813 0,-0.015625 0,-0.015625 C 1.179688,-0.539062 1.1875,-0.550781 1.1875,-0.5625 1.195312,-0.695312 1.191406,-0.804688 1.171875,-0.890625 1.148438,-0.992188 1.125,-1.09375 1.09375,-1.1875 1.0625,-1.28125 1.070312,-1.375 1.125,-1.46875 1.164062,-1.53125 1.226562,-1.578125 1.3125,-1.609375 1.394531,-1.640625 1.472656,-1.65625 1.546875,-1.65625 2.304688,-1.769531 3.0625,-1.929688 3.8125,-2.140625 4.5625,-2.347656 5.289062,-2.601562 6,-2.90625 6.375,-3.070312 6.742188,-3.25 7.109375,-3.4375 7.484375,-3.632812 7.835938,-3.863281 8.171875,-4.125 8.273438,-4.207031 8.375,-4.300781 8.46875,-4.40625 8.570312,-4.507812 8.65625,-4.625 8.71875,-4.75 c 0.0625,-0.125 0.101562,-0.253906 0.125,-0.390625 0.019531,-0.144531 0,-0.285156 -0.0625,-0.421875 C 8.71875,-5.71875 8.613281,-5.84375 8.46875,-5.9375 8.320312,-6.03125 8.164062,-6.109375 8,-6.171875 7.519531,-6.335938 7.023438,-6.441406 6.515625,-6.484375 6.003906,-6.523438 5.5,-6.519531 5,-6.46875 4.664062,-6.4375 4.335938,-6.382812 4.015625,-6.3125 3.691406,-6.25 3.378906,-6.160156 3.078125,-6.046875 2.804688,-5.953125 2.5625,-5.835938 2.34375,-5.703125 2.125,-5.566406 1.90625,-5.40625 1.6875,-5.21875 1.664062,-5.207031 1.628906,-5.179688 1.578125,-5.140625 1.535156,-5.097656 1.5,-5.078125 1.46875,-5.078125 1.425781,-5.097656 1.40625,-5.132812 1.40625,-5.1875 c 0,-0.050781 -0.00781,-0.09375 -0.015625,-0.125 -0.011719,-0.101562 -0.011719,-0.207031 0,-0.3125 0.00781,-0.101562 0.015625,-0.203125 0.015625,-0.296875 0,-0.144531 0,-0.289063 0,-0.4375 0,-0.144531 0,-0.285156 0,-0.421875 0,-0.039062 0,-0.078125 0,-0.109375 0.00781,-0.03125 0.019531,-0.0625 0.03125,-0.09375 0.03125,-0.03125 0.0625,-0.054687 0.09375,-0.078125 0.039062,-0.03125 0.082031,-0.054688 0.125,-0.078125 1.039062,-0.425781 2.125,-0.679687 3.25,-0.765625 1.125,-0.09375 2.226562,-0.015625 3.3125,0.234375 0.34375,0.074219 0.675781,0.171875 1,0.296875 0.320312,0.117188 0.617188,0.28125 0.890625,0.5 0.269531,0.21875 0.484375,0.492188 0.640625,0.8125 0.15625,0.324219 0.210938,0.652344 0.171875,0.984375 -0.04297,0.34375 -0.179687,0.65625 -0.40625,0.9375 -0.230469,0.273437 -0.484375,0.511719 -0.765625,0.71875 -0.292969,0.230469 -0.605469,0.433594 -0.9375,0.609375 -0.324219,0.167969 -0.65625,0.324219 -1,0.46875 -0.34375,0.136719 -0.6875,0.265625 -1.03125,0.390625 -0.117188,0.03125 -0.230469,0.054687 -0.34375,0.0625 -0.117188,0.011719 -0.226562,0.03125 -0.328125,0.0625 -0.054687,0.023437 -0.105469,0.042969 -0.15625,0.0625 -0.054687,0.023437 -0.09375,0.046875 -0.125,0.078125 -0.054687,0.054688 -0.054687,0.089844 0,0.109375 0.0625,0.023437 0.140625,0.03125 0.234375,0.03125 0.101562,0 0.195312,0 0.28125,0 C 6.4375,-1.554685 6.492188,-1.5625 6.515625,-1.5625 6.691406,-1.57031 6.863281,-1.578125 7.03125,-1.578125 c 0.164062,0 0.335938,0 0.515625,0 0.320313,0 0.648437,0 0.984375,0 0.332031,0 0.660156,0 0.984375,0 0.207031,0 0.414063,0 0.625,0 0.21875,-0.00781 0.425781,-0.035156 0.625,-0.078125 0.07031,-0.00781 0.140625,-0.015625 0.203125,-0.015625 0.0625,-0.00781 0.113281,0.00781 0.15625,0.046875 0.09375,0.054688 0.128906,0.140625 0.109375,0.265625 -0.01172,0.117187 -0.02734,0.226563 -0.04687,0.328125 -0.02344,0.085938 -0.03125,0.167969 -0.03125,0.25 0.0078,0.085938 0.02344,0.167969 0.04687,0.25 0,0.023438 0.0039,0.042969 0.01563,0.0625 0.0078,0.023438 0.01563,0.042969 0.01563,0.0625 z m 0,0"
             id="path35"
             style="fill:#f9f9f9" /></g></g></g><g
       fill="#2b2b2b"
       fill-opacity="1"
       id="g41"
       style="fill:#f9f9f9"><g
         transform="translate(274.30882,275.67432)"
         id="g40"
         style="fill:#f9f9f9"><g
           id="g39"
           style="fill:#f9f9f9"><path
             d="m 0.546875,-3.796875 c -0.011719,0.21875 0.003906,0.445313 0.046875,0.671875 0.039062,0.21875 0.109375,0.433594 0.203125,0.640625 0.257813,0.554687 0.632813,1.023437 1.125,1.40625 0.488281,0.375 1.007813,0.667969 1.5625,0.875 0.300781,0.125 0.601563,0.2226562 0.90625,0.296875 0.3125,0.082031 0.625,0.140625 0.9375,0.171875 C 6.148438,0.359375 6.972656,0.351562 7.796875,0.25 8.617188,0.144531 9.410156,-0.0820312 10.171875,-0.4375 10.492188,-0.59375 10.8125,-0.78125 11.125,-1 c 0.3125,-0.21875 0.59375,-0.46875 0.84375,-0.75 0.25,-0.289062 0.4375,-0.613281 0.5625,-0.96875 0.207031,-0.5625 0.242188,-1.128906 0.109375,-1.703125 C 12.503906,-5.003906 12.238281,-5.519531 11.84375,-5.96875 11.550781,-6.28125 11.210938,-6.550781 10.828125,-6.78125 10.453125,-7.007812 10.0625,-7.203125 9.65625,-7.359375 8.769531,-7.691406 7.84375,-7.875 6.875,-7.90625 5.914062,-7.945312 4.976562,-7.832031 4.0625,-7.5625 3.613281,-7.425781 3.175781,-7.25 2.75,-7.03125 2.332031,-6.8125 1.953125,-6.535156 1.609375,-6.203125 c -0.3125,0.3125 -0.570313,0.683594 -0.765625,1.109375 -0.199219,0.417969 -0.296875,0.851562 -0.296875,1.296875 z m 2.03125,-0.109375 c 0.00781,-0.394531 0.132813,-0.773438 0.375,-1.140625 0.25,-0.363281 0.550781,-0.648437 0.90625,-0.859375 0.40625,-0.25 0.84375,-0.425781 1.3125,-0.53125 0.476563,-0.113281 0.960937,-0.164062 1.453125,-0.15625 0.488281,0 0.960938,0.054688 1.421875,0.15625 0.394531,0.085938 0.78125,0.226562 1.15625,0.421875 0.382813,0.199219 0.71875,0.453125 1,0.765625 0.28125,0.3125 0.445313,0.683594 0.5,1.109375 0.0078,0.148437 0.0039,0.292969 -0.01563,0.4375 -0.01172,0.148437 -0.03125,0.289063 -0.0625,0.421875 -0.09375,0.304688 -0.25,0.574219 -0.46875,0.8125 -0.21875,0.242188 -0.46875,0.445312 -0.75,0.609375 -0.28125,0.167969 -0.574219,0.296875 -0.875,0.390625 -0.480469,0.148438 -0.980469,0.234375 -1.5,0.265625 -0.523438,0.03125 -1.039062,0.011719 -1.546875,-0.0625 C 5.085938,-1.328125 4.695312,-1.4375 4.3125,-1.59375 3.9375,-1.75 3.601562,-1.960938 3.3125,-2.234375 3.019531,-2.515625 2.804688,-2.859375 2.671875,-3.265625 2.609375,-3.472656 2.578125,-3.6875 2.578125,-3.90625 Z m 0,0"
             id="path38"
             style="fill:#f9f9f9" /></g></g></g><g
       fill="#2b2b2b"
       fill-opacity="1"
       id="g44"
       style="fill:#f9f9f9"><g
         transform="translate(288.10164,275.67432)"
         id="g43"
         style="fill:#f9f9f9"><g
           id="g42"
           style="fill:#f9f9f9"><path
             d="m 11.234375,-0.40625 c 0.01953,0.03125 0.03516,0.070312 0.04687,0.109375 0.0078,0.03125 0.0078,0.0625 0,0.09375 C 11.269531,-0.0976562 11.207031,-0.03125 11.09375,0 10.988281,0.0390625 10.882812,0.0546875 10.78125,0.046875 9.25,0.00390625 7.710938,-0.015625 6.171875,-0.015625 c -1.542969,0 -3.078125,0.01953125 -4.609375,0.0625 -0.105469,0 -0.214844,-0.0117188 -0.328125,-0.03125 -0.105469,-0.01953125 -0.167969,-0.09375 -0.1875,-0.21875 0,-0.019531 0.00781,-0.046875 0.03125,-0.078125 0.019531,-0.039062 0.035156,-0.082031 0.046875,-0.125 -0.011719,-0.0625 -0.023438,-0.117188 -0.03125,-0.171875 0,-0.050781 0.015625,-0.117187 0.046875,-0.203125 0,-0.007812 0,-0.015625 0,-0.015625 0.00781,0 0.015625,-0.003906 0.015625,-0.015625 0,0.03125 0,0.070312 0,0.109375 0.00781,0.042969 0.015625,0.101563 0.015625,0.171875 v 0.015625 c 0,-0.007813 0,-0.015625 0,-0.015625 C 1.179688,-0.539062 1.1875,-0.550781 1.1875,-0.5625 1.195312,-0.695312 1.191406,-0.804688 1.171875,-0.890625 1.148438,-0.992188 1.125,-1.09375 1.09375,-1.1875 1.0625,-1.28125 1.070312,-1.375 1.125,-1.46875 1.164062,-1.53125 1.226562,-1.578125 1.3125,-1.609375 1.394531,-1.640625 1.472656,-1.65625 1.546875,-1.65625 2.304688,-1.769531 3.0625,-1.929688 3.8125,-2.140625 4.5625,-2.347656 5.289062,-2.601562 6,-2.90625 6.375,-3.070312 6.742188,-3.25 7.109375,-3.4375 7.484375,-3.632812 7.835938,-3.863281 8.171875,-4.125 8.273438,-4.207031 8.375,-4.300781 8.46875,-4.40625 8.570312,-4.507812 8.65625,-4.625 8.71875,-4.75 c 0.0625,-0.125 0.101562,-0.253906 0.125,-0.390625 0.019531,-0.144531 0,-0.285156 -0.0625,-0.421875 C 8.71875,-5.71875 8.613281,-5.84375 8.46875,-5.9375 8.320312,-6.03125 8.164062,-6.109375 8,-6.171875 7.519531,-6.335938 7.023438,-6.441406 6.515625,-6.484375 6.003906,-6.523438 5.5,-6.519531 5,-6.46875 4.664062,-6.4375 4.335938,-6.382812 4.015625,-6.3125 3.691406,-6.25 3.378906,-6.160156 3.078125,-6.046875 2.804688,-5.953125 2.5625,-5.835938 2.34375,-5.703125 2.125,-5.566406 1.90625,-5.40625 1.6875,-5.21875 1.664062,-5.207031 1.628906,-5.179688 1.578125,-5.140625 1.535156,-5.097656 1.5,-5.078125 1.46875,-5.078125 1.425781,-5.097656 1.40625,-5.132812 1.40625,-5.1875 c 0,-0.050781 -0.00781,-0.09375 -0.015625,-0.125 -0.011719,-0.101562 -0.011719,-0.207031 0,-0.3125 0.00781,-0.101562 0.015625,-0.203125 0.015625,-0.296875 0,-0.144531 0,-0.289063 0,-0.4375 0,-0.144531 0,-0.285156 0,-0.421875 0,-0.039062 0,-0.078125 0,-0.109375 0.00781,-0.03125 0.019531,-0.0625 0.03125,-0.09375 0.03125,-0.03125 0.0625,-0.054687 0.09375,-0.078125 0.039062,-0.03125 0.082031,-0.054688 0.125,-0.078125 1.039062,-0.425781 2.125,-0.679687 3.25,-0.765625 1.125,-0.09375 2.226562,-0.015625 3.3125,0.234375 0.34375,0.074219 0.675781,0.171875 1,0.296875 0.320312,0.117188 0.617188,0.28125 0.890625,0.5 0.269531,0.21875 0.484375,0.492188 0.640625,0.8125 0.15625,0.324219 0.210938,0.652344 0.171875,0.984375 -0.04297,0.34375 -0.179687,0.65625 -0.40625,0.9375 -0.230469,0.273437 -0.484375,0.511719 -0.765625,0.71875 -0.292969,0.230469 -0.605469,0.433594 -0.9375,0.609375 -0.324219,0.167969 -0.65625,0.324219 -1,0.46875 -0.34375,0.136719 -0.6875,0.265625 -1.03125,0.390625 -0.117188,0.03125 -0.230469,0.054687 -0.34375,0.0625 -0.117188,0.011719 -0.226562,0.03125 -0.328125,0.0625 -0.054687,0.023437 -0.105469,0.042969 -0.15625,0.0625 -0.054687,0.023437 -0.09375,0.046875 -0.125,0.078125 -0.054687,0.054688 -0.054687,0.089844 0,0.109375 0.0625,0.023437 0.140625,0.03125 0.234375,0.03125 0.101562,0 0.195312,0 0.28125,0 C 6.4375,-1.554685 6.492188,-1.5625 6.515625,-1.5625 6.691406,-1.57031 6.863281,-1.578125 7.03125,-1.578125 c 0.164062,0 0.335938,0 0.515625,0 0.320313,0 0.648437,0 0.984375,0 0.332031,0 0.660156,0 0.984375,0 0.207031,0 0.414063,0 0.625,0 0.21875,-0.00781 0.425781,-0.035156 0.625,-0.078125 0.07031,-0.00781 0.140625,-0.015625 0.203125,-0.015625 0.0625,-0.00781 0.113281,0.00781 0.15625,0.046875 0.09375,0.054688 0.128906,0.140625 0.109375,0.265625 -0.01172,0.117187 -0.02734,0.226563 -0.04687,0.328125 -0.02344,0.085938 -0.03125,0.167969 -0.03125,0.25 0.0078,0.085938 0.02344,0.167969 0.04687,0.25 0,0.023438 0.0039,0.042969 0.01563,0.0625 0.0078,0.023438 0.01563,0.042969 0.01563,0.0625 z m 0,0"
             id="path41"
             style="fill:#f9f9f9" /></g></g></g><g
       fill="#2b2b2b"
       fill-opacity="1"
       id="g47"
       style="fill:#f9f9f9"><g
         transform="translate(301.36274,275.67432)"
         id="g46"
         style="fill:#f9f9f9"><g
           id="g45"
           style="fill:#f9f9f9"><path
             d="m 9.921875,-2.65625 v 0.046875 c 0,0.335937 -0.101563,0.652344 -0.296875,0.953125 -0.1875,0.304688 -0.421875,0.554688 -0.703125,0.75 -0.28125,0.199219 -0.585937,0.355469 -0.90625,0.46875 -0.324219,0.105469 -0.65625,0.183594 -1,0.234375 -0.960937,0.1875 -1.933594,0.25 -2.921875,0.1875 C 3.101562,-0.0859375 2.132812,-0.257812 1.1875,-0.53125 1.09375,-0.550781 1.003906,-0.582031 0.921875,-0.625 0.835938,-0.664062 0.757812,-0.710938 0.6875,-0.765625 0.601562,-0.835938 0.554688,-0.910156 0.546875,-0.984375 c 0,-0.082031 0,-0.175781 0,-0.28125 0.007813,-0.226563 0.015625,-0.457031 0.015625,-0.6875 0,-0.238281 0,-0.476563 0,-0.71875 0,-0.019531 0,-0.046875 0,-0.078125 0.007812,-0.03125 0.023438,-0.046875 0.046875,-0.046875 0.03125,-0.019531 0.0625,-0.019531 0.09375,0 0.039063,0.023437 0.070313,0.046875 0.09375,0.078125 0.28125,0.292969 0.601563,0.53125 0.96875,0.71875 0.363281,0.179688 0.75,0.3125 1.15625,0.40625 0.414063,0.085938 0.820313,0.140625 1.21875,0.171875 0.5,0.03125 0.992187,0.027344 1.484375,-0.015625 0.488281,-0.039062 0.957031,-0.148438 1.40625,-0.328125 0.1875,-0.082031 0.367188,-0.191406 0.546875,-0.328125 0.175781,-0.144531 0.265625,-0.316406 0.265625,-0.515625 0.00781,-0.125 -0.011719,-0.238281 -0.0625,-0.34375 C 7.726562,-3.054688 7.660156,-3.144531 7.578125,-3.21875 7.492188,-3.300781 7.398438,-3.367188 7.296875,-3.421875 c -0.105469,-0.0625 -0.210937,-0.113281 -0.3125,-0.15625 -0.304687,-0.113281 -0.617187,-0.195313 -0.9375,-0.25 C 5.734375,-3.878906 5.414062,-3.914062 5.09375,-3.9375 4.28125,-3.976562 3.476562,-3.921875 2.6875,-3.765625 2.46875,-3.710938 2.25,-3.65625 2.03125,-3.59375 1.820312,-3.53125 1.613281,-3.457031 1.40625,-3.375 1.320312,-3.34375 1.234375,-3.3125 1.140625,-3.28125 1.054688,-3.257812 1.003906,-3.3125 0.984375,-3.4375 0.984375,-3.5 0.988281,-3.566406 1,-3.640625 1.019531,-3.710938 1.035156,-3.78125 1.046875,-3.84375 1.140625,-4.4375 1.21875,-5.03125 1.28125,-5.625 1.34375,-6.226562 1.375,-6.832031 1.375,-7.4375 c 0,-0.03125 0,-0.054688 0,-0.078125 0.00781,-0.03125 0.023438,-0.0625 0.046875,-0.09375 C 1.441406,-7.628906 1.46875,-7.640625 1.5,-7.640625 1.539062,-7.648438 1.578125,-7.65625 1.609375,-7.65625 c 1.976563,0.054688 3.953125,0.074219 5.921875,0.0625 0.144531,0 0.289062,0 0.4375,0 0.15625,-0.00781 0.304688,-0.023438 0.453125,-0.046875 0.09375,-0.019531 0.1875,-0.03125 0.28125,-0.03125 0.101563,0 0.179687,0.042969 0.234375,0.125 0.050781,0.085937 0.054688,0.171875 0.015625,0.265625 -0.042969,0.09375 -0.0625,0.195312 -0.0625,0.296875 0,0.085937 0.015625,0.164063 0.046875,0.234375 0.03125,0.074219 0.035156,0.152344 0.015625,0.234375 -0.03125,0.085937 -0.09375,0.136719 -0.1875,0.15625 -0.09375,0.023437 -0.1875,0.03125 -0.28125,0.03125 l -5.1875,-0.140625 c -0.074219,0 -0.148437,0.00781 -0.21875,0.015625 C 3.003906,-6.441406 2.945312,-6.414062 2.90625,-6.375 2.875,-6.34375 2.847656,-6.300781 2.828125,-6.25 2.804688,-6.207031 2.789062,-6.160156 2.78125,-6.109375 2.726562,-5.910156 2.695312,-5.695312 2.6875,-5.46875 c 0,0.023438 0,0.046875 0,0.078125 0,0.03125 0.00391,0.0625 0.015625,0.09375 0.039063,0.042969 0.085937,0.070313 0.140625,0.078125 0.050781,0 0.101562,0 0.15625,0 0.71875,-0.0625 1.4375,-0.09375 2.15625,-0.09375 0.726562,-0.00781 1.445312,0.070312 2.15625,0.234375 0.3125,0.074219 0.617188,0.171875 0.921875,0.296875 0.3125,0.117188 0.585937,0.277344 0.828125,0.484375 0.25,0.210937 0.453125,0.460937 0.609375,0.75 0.164063,0.28125 0.25,0.578125 0.25,0.890625 z m 0,0"
             id="path44"
             style="fill:#f9f9f9" /></g></g></g></g></svg>
